<svg id="katman_1" data-name="katman 1" xmlns="http://www.w3.org/2000/svg" xmlns:xlink="http://www.w3.org/1999/xlink" viewBox="0 0 1057.17 834.89"><defs><style>.cls-1{fill:#6a6a6b;}.cls-2{fill:url(#Adsız_degrade_3);}.cls-3{fill:url(#Adsız_degrade_3-2);}.cls-4{fill:url(#Adsız_degrade_3-3);}.cls-5{fill:#3fa1b6;}.cls-6{fill:#232838;}.cls-7{fill:#525d77;}.cls-8{fill:url(#Adsız_degrade_3-4);}.cls-9{fill:#4a280d;}.cls-10{fill:#080200;}.cls-11{fill:#321a05;}.cls-12{fill:#d8d8d6;}.cls-13,.cls-16{fill:none;stroke:#9d9da1;stroke-miterlimit:10;}.cls-14,.cls-15{fill:#6c7475;}.cls-14{opacity:0.39;}.cls-15{opacity:0.23;}.cls-16{stroke-width:2px;}.cls-17{fill:#755642;}.cls-18{fill:#190a03;}.cls-19{fill:#fff;}.cls-20{fill:#a0a0a0;}.cls-21{fill:#c1c1c1;}.cls-22{fill:#bd9400;}.cls-23{fill:#533e30;}.cls-24{fill:#ddddd7;}</style><linearGradient id="Adsız_degrade_3" x1="145.76" y1="503.67" x2="713.17" y2="503.67" gradientUnits="userSpaceOnUse"><stop offset="0" stop-color="#ff6a00"/><stop offset="1" stop-color="#ff920d"/></linearGradient><linearGradient id="Adsız_degrade_3-2" x1="713.16" y1="212.99" x2="946.11" y2="212.99" xlink:href="#Adsız_degrade_3"/><linearGradient id="Adsız_degrade_3-3" x1="709.01" y1="516.35" x2="946.11" y2="516.35" xlink:href="#Adsız_degrade_3"/><linearGradient id="Adsız_degrade_3-4" x1="553.67" y1="538.29" x2="713.17" y2="538.29" xlink:href="#Adsız_degrade_3"/></defs><path class="cls-1" d="M136.51,594.93s-9.69,12-10.31,12.7c2,8.82,10.31,3.52,10.31,3.52l10.79-14.09.24-286.48-20.12-30.05H113.06l24.19,35.83Z"/><path class="cls-2" d="M145.76,300.33l3.46,301.85L510.8,694.64l49.53-24.77L710.58,707q1.29-155.19,2.59-310.38Z"/><polygon class="cls-3" points="946.11 29.35 946.11 328.48 713.16 396.64 715.34 393.21 946.11 29.35"/><path class="cls-4" d="M946.11,325.69V605L710.58,707q-.8-156-1.57-312l6.33-1.85Z"/><polygon class="cls-5" points="812.76 454.76 878.62 437.08 880 590.14 814.13 606.5 812.76 454.76"/><path class="cls-6" d="M868.36,583.88l-54.3,15.54.15,10.18L880,590.14Z"/><path class="cls-7" d="M880,590.14l-11.64-6.26q-.43-71.91-.86-143.82l11.12-3Z"/><path class="cls-8" d="M553.67,369.56l159.5,27.08q-1.3,155.19-2.59,310.38L560.33,669.87Z"/><path class="cls-6" d="M645.66,514.05l-46.38-10.66q-3.42,2-6.86,3.91l53.24,12.21Z"/><path class="cls-7" d="M600.29,402.78l-7.17-2.26q.15,53.39.31,106.78l6.92-3.91Z"/><path class="cls-9" d="M590.53,505.23l59.91,14.64-18.39,13.41-61.81-16Z"/><path class="cls-10" d="M650.44,519.87l-.27,8.2-17.71,13-.41-7.79Z"/><path class="cls-11" d="M632.46,541.07l-.41-7.79-61.81-16c.06,2.44.11,4.89.16,7.33Z"/><path class="cls-5" d="M604.83,403.77l-.09,96,40.92,9.14V414.13Z"/><path class="cls-12" d="M599.23,402.78q0,50.31,0,100.61l46.38,10.66v-5.17l-40.92-9.14.09-96Z"/><path class="cls-12" d="M621.86,408.09l-.58,95.35,5.43,1.21,1-95.06Z"/><path class="cls-12" d="M604.81,428.6l16.9,3.61c0,1.79,0,3.59,0,5.39l-16.87-3.83Z"/><path class="cls-12" d="M625.2,433.1l19.47,3.6c0,1.8,0,3.6,0,5.4l-19.42-3.83Z"/><path class="cls-12" d="M625.2,469.51l19.47,3.61c0,1.79,0,3.59,0,5.39l-19.42-3.83Z"/><path class="cls-12" d="M604.81,465l16.9,3.6c0,1.8,0,3.59,0,5.39l-16.87-3.83Z"/><path class="cls-13" d="M604.83,403.77q0,12.41,0,24.83l16.9,3.61"/><path class="cls-13" d="M627.76,409.59v23.34l16.9,3.6"/><path class="cls-13" d="M604.8,433.77V465l16.9,3.6"/><path class="cls-13" d="M627.76,438.9v31.25l16.9,3.6"/><path class="cls-13" d="M604.8,470.18l-.06,29.56,16.54,3.7"/><path class="cls-13" d="M626.93,474.83l-.07,29.56,16.55,3.69"/><path class="cls-6" d="M473.19,590.44l-60.56-13.92-9,5.1,69.52,16Z"/><path class="cls-7" d="M413.94,445.12l-9.36-2.95q.19,69.72.4,139.45l9-5.1Q414,510.82,413.94,445.12Z"/><path class="cls-5" d="M419.87,446.41l-.12,125.35,53.44,11.93V460Z"/><path class="cls-12" d="M412.55,445.12q0,65.7.08,131.4l60.56,13.92v-6.75l-53.44-11.93.12-125.35Z"/><path class="cls-12" d="M442.11,452.05l-.75,124.53,7.08,1.58L449.82,454Z"/><path class="cls-12" d="M419.84,478.85l22.07,4.7q0,3.52-.05,7l-22-5Z"/><path class="cls-12" d="M446.48,484.72l25.42,4.7-.06,7.05-25.37-5Z"/><path class="cls-12" d="M446.48,532.28,471.9,537l-.06,7-25.37-5Z"/><path class="cls-12" d="M419.84,526.4l22.07,4.71q0,3.51-.05,7l-22-5Z"/><path class="cls-13" d="M449.82,454v30.48l22.08,4.71"/><path class="cls-13" d="M449.82,492.29V533.1l22.07,4.7"/><path class="cls-13" d="M419.83,533.15l-.08,38.61,21.61,4.82"/><path class="cls-13" d="M448.73,539.21l-.08,38.61,21.61,4.83"/><path class="cls-6" d="M241.19,535.63l-60.56-13.92-9,5.1,69.52,16Z"/><path class="cls-7" d="M182,390.31l-9.37-2.95q.19,69.72.4,139.45l9-5.1Q182,456,182,390.31Z"/><path class="cls-5" d="M187.87,391.59l-.12,125.35,53.44,11.94V405.14Z"/><path class="cls-12" d="M180.55,390.31q0,65.7.08,131.4l60.56,13.92v-6.75l-53.44-11.94.12-125.35Z"/><path class="cls-12" d="M210.11,397.24l-.75,124.53,7.08,1.58,1.38-124.15Z"/><path class="cls-12" d="M187.84,424l22.08,4.71-.06,7-22-5Z"/><path class="cls-12" d="M214.48,429.91l25.43,4.7c0,2.35,0,4.7-.07,7.05l-25.37-5Z"/><path class="cls-12" d="M214.48,477.46l25.43,4.71c0,2.35,0,4.7-.07,7l-25.37-5Z"/><path class="cls-12" d="M187.84,471.59l22.08,4.71-.06,7-22-5Z"/><path class="cls-13" d="M217.82,399.2v30.48l22.07,4.71"/><path class="cls-13" d="M217.82,437.48v40.81l22.08,4.7"/><path class="cls-13" d="M187.83,478.34l-.08,38.6,21.61,4.83"/><path class="cls-13" d="M216.73,484.4,216.65,523l21.61,4.82"/><path class="cls-14" d="M510.24,363.25l43.43,6.31,6.66,300.31L510.8,694.64Q510.52,528.93,510.24,363.25Z"/><path class="cls-15" d="M145.76,317.83l13,6.92v83.34l105.77,21.68v-42L337.8,397l97.91,25.67,71.2,15,50,59.27,42.41,6.52,83.35,16.87q15.38-25.53,30.54-51.68A3669.07,3669.07,0,0,0,897,106.83L713.17,396.64,145.76,300.33Z"/><path class="cls-12" d="M867.51,440.06l-7,2.32L861,579.77l-47,12.76.06,6.89,54.3-15.54"/><path class="cls-12" d="M831.69,587.73q-.5-69.11-1-138.22l9.17-2q.55,68.87,1.12,137.73Z"/><path class="cls-12" d="M860.68,482.33l-20.46,4.52,0,8.41,20.44-4.49Z"/><path class="cls-12" d="M860.91,532.2l-20.46,4.52,0,8.4,20.44-4.48Z"/><path class="cls-12" d="M832.5,538.83,812,543.34l.05,8.41,20.44-4.49Z"/><path class="cls-12" d="M830.8,488.38l-20.46,4.52,0,8.4,20.44-4.48Z"/><path class="cls-16" d="M859.86,442.22l.16,39.95-19.8,4.68"/><path class="cls-16" d="M860.3,491.55l.16,39.95-19.8,4.69"/><path class="cls-16" d="M860.27,540.89l.15,40-19.8,4.68"/><path class="cls-16" d="M830.85,547.27l.15,40-17,5.3"/><path class="cls-16" d="M830.4,497.61q.17,20.48.34,41l-17.19,3.72"/><path class="cls-16" d="M830,450.14q.06,19.22.14,38.43l-16.86,3.74"/><path class="cls-17" d="M385.78,633.44,262.65,589.9,164,610.51,297.88,658.1Z"/><path class="cls-10" d="M220.81,471l-.54,3.74-10.48,5.11.13-3.58Z"/><path class="cls-18" d="M362.09,518.9l-.37,105.5L277.5,595.15q-.69-55.06-1.36-110.12Z"/><path class="cls-19" d="M307.35,517.38l-8.21,13,.21,114.32h8.37Z"/><path class="cls-20" d="M307.72,644.66l9-1.86L316.51,516l-9.53.46Q307.36,580.56,307.72,644.66Z"/><polygon class="cls-19" points="382.59 498.53 321.66 407.4 230.9 419.99 290.25 518.32 382.59 498.53"/><path class="cls-19" d="M290.18,526.52l.07-8.2L230.9,420l-48.41,65-.23,7.79,47.87-63.21Q260.15,478.05,290.18,526.52Z"/><path class="cls-21" d="M382.2,506.63c0,2.58,0,5.17.05,7.75l-91.44,20.51-.63-8.37Z"/><path class="cls-19" d="M290.18,526.52l.63,8.37L229.53,437,178,505.8l-1-6.46,53.18-69.75Q260.15,478.05,290.18,526.52Z"/><path class="cls-21" d="M181.25,501.11l82.8-9L229.5,437.19Z"/><path class="cls-20" d="M208.79,613.35l9-1.85q-.09-63.4-.2-126.82l-8.65,0Z"/><path class="cls-19" d="M208.41,486.08l-8.2,13,.21,114.31h8.37Z"/><path class="cls-19" d="M382.59,498.53l-.39,8.1-92,19.89c0-2.74.05-5.47.08-8.2Z"/><path class="cls-9" d="M346,522.52q0,19-.07,37.92l-29.32-5.63,0-25.69Z"/><path class="cls-9" d="M286.23,527.38q.06,10.07.11,20.14l12.84,4,0-18.46-8.34,1.87Z"/><path class="cls-22" d="M288.28,560.72l-3.28-.94-.26,21.34,3.33,1.15Z"/><path class="cls-17" d="M403.7,652.17l-18.36-5.86a408.9,408.9,0,0,1-86.11,3,412.43,412.43,0,0,1-135-33.24L118.25,625l164.56,67.91Z"/><path class="cls-23" d="M282.81,692.92l.63,14L118.67,637.83l-.42-13.43Z"/><path class="cls-23" d="M283.44,692.46l0,14.49L403,666.25l.75-14.08Z"/><path class="cls-23" d="M297.88,658.1l0,14.49,87.42-26.28.44-12.87Z"/><path class="cls-23" d="M297.88,658.1l0,14.49L164.45,623.94,164,610.51Z"/><path class="cls-24" d="M68.85,291q.87,9.61,1.73,19.23L714.92,413.58q.06-10.62.14-21.25Z"/><path class="cls-1" d="M693.78,699.39s-9.7,12-10.32,12.7c2,8.81,10.32,3.52,10.32,3.52l10.79-14.09L704.81,415l-20.13-30H670.33l24.18,35.84Z"/><path class="cls-1" d="M946.11,29.35v23.3L714.92,413.58q.06-10.62.14-21.25Z"/></svg>