<svg id="katman_1" data-name="katman 1" xmlns="http://www.w3.org/2000/svg" xmlns:xlink="http://www.w3.org/1999/xlink" viewBox="0 0 971.22 622.47"><defs><style>.cls-1{fill:url(#Adsız_degrade_3);}.cls-2{fill:url(#Adsız_degrade_3-2);}.cls-3{fill:#b29400;}.cls-4{fill:#68a1b5;}.cls-5{fill:#292c3a;}.cls-6{fill:#565d75;}.cls-7{fill:#d8d8d6;}.cls-18,.cls-8{fill:none;stroke:#9d9da0;stroke-miterlimit:10;}.cls-9{fill:#442c16;}.cls-10{fill:#0f0903;}.cls-11{fill:#30200f;}.cls-12{fill:#6a6a6b;}.cls-13{fill:#59391e;}.cls-14{fill:#2d221b;}.cls-15{fill:#1c120b;}.cls-16{fill:#6e7374;opacity:0.23;}.cls-17{fill:#fff;}.cls-18{stroke-width:2px;}.cls-19{fill:#6d5745;}.cls-20{fill:#a0a0a0;}.cls-21{fill:#c1c1c1;}.cls-22{fill:#4f4034;}.cls-23{opacity:0.68;}</style><linearGradient id="Adsız_degrade_3" x1="-7373.2" y1="406.62" x2="-6900.36" y2="406.62" gradientTransform="matrix(-1, 0, 0, 1, -6422.73, 0)" gradientUnits="userSpaceOnUse"><stop offset="0" stop-color="#fa6a19"/><stop offset="1" stop-color="#ff9227"/></linearGradient><linearGradient id="Adsız_degrade_3-2" x1="-6906.36" y1="419.24" x2="-6496.04" y2="419.24" xlink:href="#Adsız_degrade_3"/></defs><path class="cls-1" d="M941.33,197.47q4.57,140.17,9.14,280.36L483.78,615.77l-6.15-297.6Z" transform="translate(-26.65 -10.88)"/><path class="cls-2" d="M477.48,317.89,73.31,223,84.5,495.13,483.63,615.49Z" transform="translate(-26.65 -10.88)"/><path class="cls-3" d="M388.77,470.68" transform="translate(-26.65 -10.88)"/><path class="cls-4" d="M130.67,270.72,156,276.78l-1.86,61.87-25.24-7Z" transform="translate(-26.65 -10.88)"/><path class="cls-5" d="M154.26,334.44,133.68,329l-4.75,2.72,25.24,7Z" transform="translate(-26.65 -10.88)"/><path class="cls-6" d="M135.31,272l-4.64-1.23-1.74,61,4.75-2.72Z" transform="translate(-26.65 -10.88)"/><path class="cls-7" d="M135.31,272l-1.63,57,20.45,5.29.25-2.69L136.52,327l2.16-54.36Z" transform="translate(-26.65 -10.88)"/><path class="cls-4" d="M351.06,315.51l26.71,6.37q-1,32.58-2,65.15l-26.58-7.32Z" transform="translate(-26.65 -10.88)"/><path class="cls-5" d="M375.9,382.6l-21.67-5.76-5,2.87L375.81,387Z" transform="translate(-26.65 -10.88)"/><path class="cls-6" d="M356,316.8l-4.89-1.29-1.83,64.2,5-2.87Z" transform="translate(-26.65 -10.88)"/><path class="cls-7" d="M356,316.8l-1.73,60,21.54,5.57.26-2.84-18.81-4.76q1.14-28.62,2.27-57.25Z" transform="translate(-26.65 -10.88)"/><path class="cls-7" d="M176.44,438l10.45,2.54c0,1.12-.09,2.24-.13,3.35l-10.41-2.68Z" transform="translate(-26.65 -10.88)"/><path class="cls-8" d="M176.9,422.56q-.22,7.72-.46,15.44l10.45,2.54" transform="translate(-26.65 -10.88)"/><path class="cls-8" d="M191.05,426.59l-.41,14.51,10.44,2.54" transform="translate(-26.65 -10.88)"/><path class="cls-5" d="M200.31,491.84l-28.63-7.45-4.33,2.3,32.87,8.54Z" transform="translate(-26.65 -10.88)"/><path class="cls-6" d="M174.1,421.87l-4.42-1.53L168,486.71l4.38-2.3Q173.22,453.14,174.1,421.87Z" transform="translate(-26.65 -10.88)"/><path class="cls-9" d="M166.26,485.33l37,10.16-11.68,8-38.12-11.07Z" transform="translate(-26.65 -10.88)"/><path class="cls-10" d="M203.24,495.49l-.32,5.09-11.23,7.77-.13-4.85Z" transform="translate(-26.65 -10.88)"/><path class="cls-11" d="M191.69,508.35l-.13-4.85-38.12-11.07,0,4.55Z" transform="translate(-26.65 -10.88)"/><path class="cls-4" d="M176.9,422.56q-.89,29.83-1.76,59.66l25.27,6.4,1.68-58.88Z" transform="translate(-26.65 -10.88)"/><path class="cls-7" d="M173.43,421.85q-.87,31.27-1.75,62.54l28.63,7.45.1-3.22-25.27-6.4q.87-29.84,1.76-59.66Z" transform="translate(-26.65 -10.88)"/><path class="cls-7" d="M187.41,425.56l-2,59.25,3.34.85q1.19-29.54,2.35-59.07Z" transform="translate(-26.65 -10.88)"/><path class="cls-7" d="M189,441.16l12,2.59c0,1.11-.09,2.23-.13,3.35l-12-2.73Z" transform="translate(-26.65 -10.88)"/><path class="cls-7" d="M175.69,438.25l12,2.58-.12,3.35-12-2.72Z" transform="translate(-26.65 -10.88)"/><path class="cls-7" d="M188.39,463.79l12,2.59-.12,3.35-12-2.73Z" transform="translate(-26.65 -10.88)"/><path class="cls-7" d="M175.8,460.64l10.44,2.53-.12,3.36-10.42-2.68Z" transform="translate(-26.65 -10.88)"/><path class="cls-8" d="M176.35,441.21l-.55,19.43,10.44,2.53" transform="translate(-26.65 -10.88)"/><path class="cls-8" d="M190.53,444.81,190,464.23l10.44,2.54" transform="translate(-26.65 -10.88)"/><path class="cls-8" d="M175.7,463.85l-.56,18.37,10.22,2.59" transform="translate(-26.65 -10.88)"/><path class="cls-8" d="M189.37,467.13l-.56,18.37L199,488.09" transform="translate(-26.65 -10.88)"/><path class="cls-5" d="M353.63,533.32,325,525.87l-4.33,2.3,32.87,8.54Z" transform="translate(-26.65 -10.88)"/><path class="cls-6" d="M327.41,463.35,323,461.82l-1.71,66.37,4.38-2.3Q326.53,494.62,327.41,463.35Z" transform="translate(-26.65 -10.88)"/><path class="cls-9" d="M319.57,526.81l37,10.16-11.67,8-38.13-11.07Z" transform="translate(-26.65 -10.88)"/><path class="cls-10" d="M356.55,537l-.32,5.09L345,549.83l-.12-4.85Z" transform="translate(-26.65 -10.88)"/><path class="cls-11" d="M345,549.83l-.12-4.85-38.13-11.07,0,4.55Z" transform="translate(-26.65 -10.88)"/><path class="cls-4" d="M330.21,464.05q-.88,29.82-1.76,59.65l25.27,6.4,1.68-58.88Z" transform="translate(-26.65 -10.88)"/><path class="cls-7" d="M326.75,463.33q-.88,31.28-1.76,62.54l28.64,7.45.09-3.22-25.27-6.4q.89-29.84,1.76-59.65Z" transform="translate(-26.65 -10.88)"/><path class="cls-7" d="M340.72,467l-2.05,59.25,3.35.85,2.34-59.07Z" transform="translate(-26.65 -10.88)"/><path class="cls-7" d="M329.76,479.48,340.2,482l-.12,3.35-10.42-2.68Z" transform="translate(-26.65 -10.88)"/><path class="cls-7" d="M342.35,482.64l12,2.59c0,1.11-.08,2.23-.13,3.35l-12-2.73Z" transform="translate(-26.65 -10.88)"/><path class="cls-7" d="M341.71,505.27l12,2.59-.12,3.35-12-2.73Z" transform="translate(-26.65 -10.88)"/><path class="cls-7" d="M329.11,502.12l10.44,2.53-.12,3.36L329,505.33Z" transform="translate(-26.65 -10.88)"/><path class="cls-8" d="M330.21,464.05l-.45,15.43L340.2,482" transform="translate(-26.65 -10.88)"/><path class="cls-8" d="M344.36,468.07,344,482.58l10.44,2.54" transform="translate(-26.65 -10.88)"/><path class="cls-8" d="M329.66,482.69l-.55,19.43,10.44,2.53" transform="translate(-26.65 -10.88)"/><path class="cls-8" d="M343.84,486.29l-.55,19.42,10.44,2.54" transform="translate(-26.65 -10.88)"/><path class="cls-8" d="M329,505.33l-.56,18.37,10.22,2.59" transform="translate(-26.65 -10.88)"/><path class="cls-8" d="M342.68,508.61,342.12,527l10.22,2.59" transform="translate(-26.65 -10.88)"/><path class="cls-12" d="M480.43,616s-10.88,11.74-11.57,12.43c2.37,8.51,11.74,3.28,11.74,3.28l12.11-13.78L490,340.57l-23.17-28.85-16.3.18,27.84,34.4Z" transform="translate(-26.65 -10.88)"/><path class="cls-13" d="M29.34,394.82l353.31,83.23q.68-39.62,1.34-79.23L26.65,319.36q1.35,37.72,2.69,75.46Z" transform="translate(-26.65 -10.88)"/><path class="cls-14" d="M382.65,478.05l78.75-23.38,1-67.54L384,398.82Q383.32,438.44,382.65,478.05Z" transform="translate(-26.65 -10.88)"/><path class="cls-14" d="M26.65,319.36l50.1-6.18.18,18.25Z" transform="translate(-26.65 -10.88)"/><path class="cls-15" d="M238.49,367.19l.24-60.25,41.89,9.63-2.76,59.18Z" transform="translate(-26.65 -10.88)"/><path class="cls-16" d="M250.15,346.64l.11-26.21,18.22,4.19-1.2,25.75Z" transform="translate(-26.65 -10.88)"/><path class="cls-3" d="M270.61,360l2.53.21-1.29,12.07-2.51,0Q270,366.11,270.61,360Z" transform="translate(-26.65 -10.88)"/><polygon class="cls-17" points="0 211.13 318.02 62.02 459.22 311.42 0 211.13"/><polygon class="cls-17" points="318.02 62.02 690.14 0 971.22 178.14 459.22 311.42 318.02 62.02"/><polygon class="cls-4" points="565.1 357.47 631.12 340.38 631.12 493.44 565.1 509.21 565.1 357.47"/><path class="cls-5" d="M646.18,498,591.75,513l.06,10.17,66-18.86Z" transform="translate(-26.65 -10.88)"/><path class="cls-6" d="M657.77,504.33,646.18,498l.45-143.82,11.14-2.88Z" transform="translate(-26.65 -10.88)"/><path class="cls-3" d="M591.92,458.05" transform="translate(-26.65 -10.88)"/><path class="cls-7" d="M646.63,354.14l-7,2.26-.72,137.39-47.16,12.33V513L646.18,498" transform="translate(-26.65 -10.88)"/><path class="cls-7" d="M609.49,501.48q.12-69.11.26-138.22l9.19-1.95q-.06,68.87-.13,137.73Z" transform="translate(-26.65 -10.88)"/><path class="cls-7" d="M639.42,396.35l-20.5,4.33,0,8.41,20.49-4.3Z" transform="translate(-26.65 -10.88)"/><path class="cls-7" d="M639.2,446.22l-20.49,4.33,0,8.41,20.48-4.3Z" transform="translate(-26.65 -10.88)"/><path class="cls-7" d="M610.73,452.59l-20.49,4.33,0,8.4,20.48-4.3Z" transform="translate(-26.65 -10.88)"/><path class="cls-7" d="M609.49,402.13,589,406.46l0,8.41,20.48-4.3Z" transform="translate(-26.65 -10.88)"/><path class="cls-18" d="M639,356.23l-.21,39.95-19.84,4.5" transform="translate(-26.65 -10.88)"/><path class="cls-18" d="M639,405.56l-.2,40L618.92,450" transform="translate(-26.65 -10.88)"/><path class="cls-18" d="M638.48,454.9l-.21,40-19.83,4.51" transform="translate(-26.65 -10.88)"/><path class="cls-18" d="M609,461l-.21,40-17,5.15" transform="translate(-26.65 -10.88)"/><path class="cls-18" d="M609,411.35q0,20.49,0,41l-17.22,3.56" transform="translate(-26.65 -10.88)"/><path class="cls-18" d="M609,363.88q-.11,19.22-.2,38.43l-16.89,3.59" transform="translate(-26.65 -10.88)"/><polygon class="cls-4" points="789.16 296.25 855.18 279.17 855.18 432.23 789.16 448 789.16 296.25"/><path class="cls-5" d="M870.24,436.75,815.81,451.8q0,5.1.05,10.18l66-18.87Z" transform="translate(-26.65 -10.88)"/><path class="cls-6" d="M881.83,443.11l-11.59-6.36.45-143.82,11.14-2.88Z" transform="translate(-26.65 -10.88)"/><path class="cls-7" d="M870.69,292.93l-7,2.26L863,432.58l-47.16,12.33v6.89l54.43-15.05" transform="translate(-26.65 -10.88)"/><path class="cls-7" d="M833.55,440.27q.12-69.11.26-138.22L843,300.1l-.12,137.73Z" transform="translate(-26.65 -10.88)"/><path class="cls-7" d="M863.48,335.14,843,339.47l0,8.41,20.48-4.3Z" transform="translate(-26.65 -10.88)"/><path class="cls-7" d="M863.26,385l-20.5,4.33,0,8.4,20.48-4.3Z" transform="translate(-26.65 -10.88)"/><path class="cls-7" d="M834.79,391.38l-20.49,4.33,0,8.4,20.48-4.3Z" transform="translate(-26.65 -10.88)"/><path class="cls-7" d="M833.55,340.92l-20.5,4.33,0,8.41,20.48-4.3Z" transform="translate(-26.65 -10.88)"/><path class="cls-18" d="M863,295l-.21,40L843,339.47" transform="translate(-26.65 -10.88)"/><path class="cls-18" d="M863,344.35l-.21,39.95L843,388.81" transform="translate(-26.65 -10.88)"/><path class="cls-18" d="M862.54,393.69l-.21,39.95-19.84,4.5" transform="translate(-26.65 -10.88)"/><path class="cls-18" d="M833.07,399.81l-.21,39.95-17.05,5.15" transform="translate(-26.65 -10.88)"/><path class="cls-18" d="M833.07,350.14q0,20.48,0,41l-17.22,3.57" transform="translate(-26.65 -10.88)"/><path class="cls-18" d="M833.06,302.67q-.1,19.21-.2,38.43L816,344.69" transform="translate(-26.65 -10.88)"/><path class="cls-19" d="M678.55,559.84l123.13-43.55,98.62,20.62L766.45,584.49Z" transform="translate(-26.65 -10.88)"/><path class="cls-10" d="M843.53,397.42l.53,3.74,10.49,5.12-.13-3.59Z" transform="translate(-26.65 -10.88)"/><path class="cls-15" d="M702.25,445.3l.37,105.49,84.22-29.25,1.35-110.12Z" transform="translate(-26.65 -10.88)"/><path class="cls-17" d="M757,443.77l8.2,13L765,571.05h-8.37Z" transform="translate(-26.65 -10.88)"/><path class="cls-20" d="M756.61,571.05l-9-1.85.21-126.82,9.53.47Q757,506.94,756.61,571.05Z" transform="translate(-26.65 -10.88)"/><polygon class="cls-17" points="655.09 414.05 716.02 322.91 806.78 335.5 747.43 433.83 655.09 414.05"/><path class="cls-17" d="M774.15,452.91l-.07-8.2,59.35-98.33,48.41,65,.23,7.8L834.21,356Z" transform="translate(-26.65 -10.88)"/><path class="cls-21" d="M682.13,433c0,2.59,0,5.17,0,7.76l91.44,20.5.63-8.37Z" transform="translate(-26.65 -10.88)"/><path class="cls-17" d="M774.15,452.91l-.63,8.37q30.65-48.93,61.28-97.88l51.58,68.8,1-6.47L834.21,356Z" transform="translate(-26.65 -10.88)"/><path class="cls-21" d="M883.08,427.5l-82.8-9q17.28-27.47,34.55-54.93Z" transform="translate(-26.65 -10.88)"/><path class="cls-20" d="M855.55,539.75l-9-1.85q.11-63.42.2-126.82l8.65,0Z" transform="translate(-26.65 -10.88)"/><path class="cls-17" d="M855.92,412.47l8.21,13-.21,114.32h-8.37Z" transform="translate(-26.65 -10.88)"/><path class="cls-17" d="M681.75,424.93q.18,4,.38,8.09l92,19.89c0-2.73,0-5.46-.07-8.2Z" transform="translate(-26.65 -10.88)"/><path class="cls-9" d="M718.36,448.91q0,19,.07,37.92l29.33-5.62,0-25.7Z" transform="translate(-26.65 -10.88)"/><path class="cls-9" d="M778.1,453.77q0,10.08-.11,20.15l-12.84,3.95,0-18.46,8.33,1.87Q775.82,457.53,778.1,453.77Z" transform="translate(-26.65 -10.88)"/><path class="cls-3" d="M776.05,487.11l3.28-.93.27,21.33-3.34,1.16Z" transform="translate(-26.65 -10.88)"/><path class="cls-19" d="M660.63,578.56,679,572.7a408.87,408.87,0,0,0,86.11,3,412.41,412.41,0,0,0,135-33.25l46,8.95L781.52,619.32Z" transform="translate(-26.65 -10.88)"/><path class="cls-22" d="M781.52,619.32l-.63,14,164.77-69.13.42-13.43Z" transform="translate(-26.65 -10.88)"/><path class="cls-22" d="M780.89,618.85l0,14.5L661.38,592.64l-.75-14.08Z" transform="translate(-26.65 -10.88)"/><path class="cls-22" d="M766.45,584.49l0,14.5L679,572.7l-.44-12.86Z" transform="translate(-26.65 -10.88)"/><path class="cls-22" d="M766.45,584.49l0,14.5,133.47-48.65.41-13.43Z" transform="translate(-26.65 -10.88)"/><g class="cls-23"><path class="cls-21" d="M73.9,231.93l413,89.8q-.42,9.93-.83,19.86L74.6,252.33Q74.24,242.13,73.9,231.93Z" transform="translate(-26.65 -10.88)"/><path class="cls-21" d="M486.92,321.73,942.55,203.42q-.21,9.17-.43,18.33l-456,119.84Q486.5,331.66,486.92,321.73Z" transform="translate(-26.65 -10.88)"/></g><path class="cls-21" d="M448.1,278.6" transform="translate(-26.65 -10.88)"/></svg>