<svg id="katman_1" data-name="katman 1" xmlns="http://www.w3.org/2000/svg" xmlns:xlink="http://www.w3.org/1999/xlink" viewBox="0 0 1068.49 834.89"><defs><style>.cls-1{fill:url(#Adsız_degrade_3);}.cls-2{fill:url(#Adsız_degrade_3-2);}.cls-3{fill:#3fa1b6;}.cls-4{fill:url(#Adsız_degrade_3-3);}.cls-5{fill:#232838;}.cls-6{fill:#525d77;}.cls-7{fill:#4a280d;}.cls-8{fill:#080200;}.cls-9{fill:#321a05;}.cls-10{fill:#d8d8d6;}.cls-11,.cls-19{fill:none;stroke:#9d9da1;stroke-miterlimit:10;}.cls-12{fill:#6a6a6b;}.cls-13,.cls-14{fill:#6c7475;}.cls-13{opacity:0.39;}.cls-14{opacity:0.23;}.cls-15{fill:#623616;}.cls-16{fill:#2d1c14;}.cls-17{fill:#190a03;}.cls-18{fill:#bd9400;}.cls-19{stroke-width:2px;}.cls-20{fill:#755642;}.cls-21{fill:#fff;}.cls-22{fill:#a0a0a0;}.cls-23{fill:#c1c1c1;}.cls-24{fill:#533e30;}.cls-25{fill:#fffff7;}.cls-26{fill:#ababab;}</style><linearGradient id="Adsız_degrade_3" x1="76.54" y1="535.66" x2="651.5" y2="535.66" gradientUnits="userSpaceOnUse"><stop offset="0" stop-color="#ff6a00"/><stop offset="1" stop-color="#ff920d"/></linearGradient><linearGradient id="Adsız_degrade_3-2" x1="652.17" y1="246.55" x2="1010.68" y2="246.55" xlink:href="#Adsız_degrade_3"/><linearGradient id="Adsız_degrade_3-3" x1="650.01" y1="533.12" x2="1006.79" y2="533.12" xlink:href="#Adsız_degrade_3"/></defs><path class="cls-1" d="M76.54,335.81q8.13,157.07,16.25,314.13l353.26,85.58,60.66-37.94L651.5,726l-5.28-300.93Z"/><path class="cls-2" d="M652.17,430.91,886,62.2q62.34,103,124.66,206-1.95,29.5-3.92,59Z"/><path class="cls-3" d="M148.67,371.92l26.75,5.58q0,32.43-.1,64.85l-26.65-6.53Z"/><path class="cls-4" d="M650,429.33l356.78-104.39-2.71,263.63L651.58,741.29Q650.8,585.3,650,429.33Z"/><path class="cls-5" d="M175.29,437.94l-21.72-5.11-4.9,3,26.65,6.53Z"/><path class="cls-6" d="M153.58,373.07l-4.91-1.15v63.9l4.9-3Z"/><path class="cls-5" d="M181.19,613.07l-32.88-7.56-4.87,2.77,37.75,8.66Z"/><path class="cls-6" d="M149,534.17l-5.08-1.61.21,75.72,4.91-2.77Q149,569.84,149,534.17Z"/><path class="cls-7" d="M142.16,606.76l42.48,10.37-13,9.51-43.82-11.38Z"/><path class="cls-8" d="M184.64,617.13l-.19,5.82q-6.28,4.6-12.56,9.22l-.3-5.53Z"/><path class="cls-9" d="M171.89,632.17l-.3-5.53-43.82-11.38c0,1.74.08,3.47.11,5.2Z"/><path class="cls-3" d="M152.24,534.86q0,34-.07,68.06l29,6.48V542.21Z"/><polygon class="cls-3" points="691.16 482.67 757.18 465.58 757.18 618.65 691.16 634.41 691.16 482.67"/><path class="cls-5" d="M745.59,612.28l-54.43,15.06q0,5.08.05,10.18l66-18.87Z"/><path class="cls-6" d="M757.18,618.65l-11.59-6.37L746,468.47l11.14-2.89Z"/><path class="cls-10" d="M148.26,534.17q0,35.67.05,71.34l32.88,7.56V609.4l-29-6.48q0-34,.07-68.06Z"/><path class="cls-10" d="M153.58,373.07v59.76l21.58,4.93.17-2.83-18.83-4.21.63-57Z"/><path class="cls-3" d="M347.28,407.14,374,412.73l-.09,64.85-26.65-6.53Z"/><path class="cls-5" d="M373.9,473.17l-21.72-5.11-4.9,3,26.65,6.53Z"/><path class="cls-6" d="M352.18,408.3l-4.9-1.16v63.91l4.9-3Z"/><path class="cls-10" d="M352.18,408.3v59.76L373.76,473l.17-2.83L355.09,466l.63-57Z"/><path class="cls-10" d="M164.31,537.93l-.4,67.61,3.84.86L168.5,539Z"/><path class="cls-10" d="M152.22,552.48l12,2.55,0,3.82-12-2.71Z"/><path class="cls-10" d="M166.68,555.66l13.81,2.56,0,3.82-13.78-2.71Z"/><path class="cls-10" d="M166.68,581.49,180.49,584l0,3.82-13.78-2.71Z"/><path class="cls-10" d="M152.22,578.3l12,2.55,0,3.82-12-2.71Z"/><path class="cls-11" d="M152.24,534.86q0,8.8,0,17.62l12,2.55"/><path class="cls-11" d="M168.5,539v16.55l12,2.56"/><path class="cls-11" d="M152.22,556.14V578.3l12,2.55"/><path class="cls-11" d="M168.5,559.78v22.15l12,2.56"/><path class="cls-11" d="M152.22,582l-.05,21,11.74,2.62"/><path class="cls-11" d="M167.91,585.25l0,21,11.74,2.62"/><path class="cls-5" d="M357.3,655.35l-32.88-7.56-4.86,2.77,37.74,8.66Z"/><path class="cls-6" d="M325.14,576.45l-5.09-1.6q.1,37.86.22,75.71l4.91-2.77Q325.17,612.12,325.14,576.45Z"/><path class="cls-7" d="M318.27,649l42.48,10.38-13,9.51-43.82-11.38Z"/><path class="cls-8" d="M360.75,659.42l-.19,5.81q-6.27,4.62-12.56,9.22l-.29-5.52Z"/><path class="cls-9" d="M348,674.45l-.29-5.52-43.82-11.38c0,1.73.07,3.46.11,5.2Z"/><path class="cls-3" d="M328.35,577.15l-.06,68.06,29,6.48V584.5Z"/><path class="cls-10" d="M324.38,576.45q0,35.67,0,71.34l32.88,7.56v-3.66l-29-6.48.06-68.06Z"/><path class="cls-10" d="M340.43,580.22,340,647.83l3.85.86.75-67.41Z"/><path class="cls-10" d="M328.34,594.76l12,2.56,0,3.82-12-2.71Z"/><path class="cls-10" d="M342.8,598l13.81,2.56c0,1.27,0,2.55,0,3.82l-13.77-2.72Z"/><path class="cls-10" d="M342.8,623.77l13.81,2.56c0,1.27,0,2.55,0,3.82l-13.77-2.71Z"/><path class="cls-10" d="M328.34,620.58l12,2.56,0,3.82-12-2.71Z"/><path class="cls-11" d="M328.35,577.15q0,8.8,0,17.61l12,2.56"/><path class="cls-11" d="M344.62,581.28v16.55l12,2.55"/><path class="cls-11" d="M328.33,598.43v22.15l12,2.56"/><path class="cls-11" d="M344.62,602.06v22.16l12,2.55"/><path class="cls-11" d="M328.33,624.25l0,21L340,647.83"/><path class="cls-11" d="M344,627.54l0,21,11.73,2.62"/><path class="cls-5" d="M586.66,548.33l-46.37-10.66-6.87,3.9,53.24,12.21Z"/><path class="cls-6" d="M541.29,437.06l-7.17-2.27q.17,53.4.31,106.78l6.92-3.9Z"/><path class="cls-7" d="M531.54,539.51l59.9,14.63-18.39,13.41-61.81-16Z"/><path class="cls-8" d="M591.44,554.14l-.27,8.2-17.71,13-.41-7.79Z"/><path class="cls-12" d="M77.51,629.21s-9.69,12-10.31,12.7c2,8.81,10.31,3.52,10.31,3.52L88.3,631.34l.24-286.49L68.42,314.8H54.06l24.19,35.84Z"/><path class="cls-9" d="M573.46,575.34l-.41-7.79-61.81-16q.09,3.66.16,7.32Z"/><path class="cls-3" d="M545.83,438l-.09,96,40.92,9.14V448.41Z"/><path class="cls-10" d="M540.23,437.06l.06,100.61,46.37,10.66v-5.17L545.74,534l.09-96Z"/><path class="cls-10" d="M562.86,442.36l-.58,95.35,5.43,1.21,1-95.06Z"/><path class="cls-10" d="M545.81,462.88l16.9,3.6c0,1.8,0,3.6,0,5.39l-16.87-3.82Z"/><path class="cls-10" d="M566.2,467.38l19.47,3.6c0,1.8,0,3.59,0,5.39l-19.43-3.83Z"/><path class="cls-10" d="M566.2,503.79l19.47,3.6c0,1.8,0,3.6,0,5.39L566.2,509Z"/><path class="cls-10" d="M545.81,499.29l16.9,3.6c0,1.8,0,3.6,0,5.4l-16.87-3.83Z"/><path class="cls-11" d="M545.83,438q0,12.42,0,24.84l16.9,3.6"/><path class="cls-11" d="M568.76,443.86V467.2l16.9,3.61"/><path class="cls-11" d="M545.8,468.05v31.24l16.9,3.6"/><path class="cls-11" d="M568.76,473.17v31.25l16.9,3.6"/><path class="cls-11" d="M545.8,504.46,545.74,534l16.54,3.69"/><path class="cls-11" d="M567.93,509.1l-.06,29.56,16.54,3.7"/><path class="cls-13" d="M451.24,397.52l43.43,6.32q3.3,148.49,6.59,297l-44.48,28.69Q454,563.52,451.24,397.52Z"/><path class="cls-14" d="M86.76,352.11l13,6.91v83.34L205.56,464v-42l73.24,9.16,97.92,25.67,71.19,15,50,59.27,42.41,6.53,83.34,16.86Q639,529,654.17,502.86A3669.19,3669.19,0,0,0,838,141.1L654.17,430.91,86.76,334.6Z"/><path class="cls-15" d="M48.51,502.89,361.89,565.8q-.57-34.89-1.15-69.77L43.94,436.56q2.28,33.17,4.57,66.33Z"/><path class="cls-16" d="M361.89,565.8l68.62-22.88-1.14-59.47L360.74,496Q361.33,530.92,361.89,565.8Z"/><path class="cls-16" d="M43.94,436.56l43.91-6.91.69,16.06Z"/><path class="cls-17" d="M220.65,469.73Q219.8,435.4,219,401L267,410.66q-.6,33.76-1.21,67.55Z"/><path class="cls-14" d="M233.26,445.93l-.73-29.88,20.91,4.18q-.27,14.68-.53,29.39Z"/><path class="cls-18" d="M257,460.49l2.88.15-1.08,13.8-2.86,0Q256.5,467.48,257,460.49Z"/><path class="cls-3" d="M941.36,223.25l-26.19,5.47.09,63.52,26.1-6.4Z"/><path class="cls-5" d="M915.29,287.92l21.28-5,4.79,2.93-26.1,6.4Z"/><path class="cls-6" d="M936.56,224.38l4.8-1.13v62.59l-4.79-2.93Z"/><path class="cls-10" d="M936.56,224.38v58.53l-21.14,4.83-.17-2.77,18.45-4.12q-.32-27.92-.62-55.83Z"/><path class="cls-3" d="M814.41,238.55l-29,6.06q.06,35.2.1,70.41l28.94-7.08Z"/><path class="cls-5" d="M785.66,310l23.52-5.43,5.23,3.33L785.47,315C785.54,313.36,785.6,311.7,785.66,310Z"/><path class="cls-6" d="M809.09,239.8l5.32-1.25v69.39l-5.32-3.25Z"/><path class="cls-10" d="M809.09,239.8v64.89L785.66,310l-.19-3.08,20.45-4.56q-.33-30.94-.68-61.88Z"/><path class="cls-15" d="M1004,334.61l-219.31,44q.41-24.42.8-48.83l221.71-41.62q-1.6,23.22-3.2,46.43Z"/><path class="cls-16" d="M784.67,378.63l-47.19-11.85,0-45.78,48,8.8Q785.07,354.22,784.67,378.63Z"/><path class="cls-16" d="M1007.18,288.18l-30.73-4.83c-.16,3.75-.33,7.49-.49,11.24Z"/><path class="cls-17" d="M883.51,311.4l1.19-48.07-33.63,6.73q.42,23.63.85,47.27Z"/><path class="cls-14" d="M874.68,294.74l.52-20.91-14.63,2.93q.18,10.28.37,20.56Z"/><path class="cls-18" d="M858.06,304.93l-2,.11.75,9.65,2,0Q858.43,309.82,858.06,304.93Z"/><path class="cls-10" d="M746,468.47l-7,2.25-.72,137.39-47.16,12.33v6.9l54.43-15.06"/><path class="cls-10" d="M708.89,615.81q.14-69.12.26-138.23l9.19-1.95-.12,137.74Z"/><path class="cls-10" d="M738.83,510.67,718.33,515l0,8.4,20.48-4.3Z"/><path class="cls-10" d="M738.61,560.54l-20.5,4.33,0,8.41,20.48-4.3Z"/><path class="cls-10" d="M710.14,566.91l-20.5,4.33,0,8.41,20.48-4.3Z"/><path class="cls-10" d="M708.89,516.45l-20.49,4.34,0,8.4,20.48-4.3Z"/><path class="cls-19" d="M738.38,470.55l-.21,39.95L718.33,515"/><path class="cls-19" d="M738.37,519.89l-.21,40-19.84,4.5"/><path class="cls-19" d="M737.89,569.22l-.21,39.95-19.84,4.51"/><path class="cls-19" d="M708.42,575.34l-.21,39.95-17.05,5.15"/><path class="cls-19" d="M708.42,525.67q0,20.49,0,41l-17.22,3.56"/><path class="cls-19" d="M708.41,478.21q-.1,19.2-.2,38.42l-16.9,3.59"/><polygon class="cls-3" points="915.22 421.46 981.24 404.37 981.24 557.44 915.22 573.2 915.22 421.46"/><path class="cls-5" d="M969.65,551.07l-54.43,15.06c0,3.39,0,6.78,0,10.18l66-18.87Z"/><path class="cls-6" d="M981.24,557.44l-11.59-6.37.45-143.82,11.14-2.88Z"/><path class="cls-10" d="M970.1,407.25l-7,2.26-.72,137.39-47.16,12.33v6.9l54.43-15.06"/><path class="cls-10" d="M933,554.59q.13-69.11.26-138.22l9.19-1.95-.12,137.74Z"/><path class="cls-10" d="M962.89,449.46l-20.5,4.34,0,8.4,20.48-4.3Z"/><path class="cls-10" d="M962.67,499.33l-20.5,4.33,0,8.41,20.49-4.3Z"/><path class="cls-10" d="M934.2,505.7,913.7,510l0,8.41,20.48-4.3Z"/><path class="cls-10" d="M933,455.24l-20.49,4.34,0,8.4,20.48-4.3Z"/><path class="cls-19" d="M962.44,409.34l-.21,40-19.84,4.51"/><path class="cls-19" d="M962.43,458.67l-.21,40-19.84,4.5"/><path class="cls-19" d="M962,508l-.21,40-19.84,4.51"/><path class="cls-19" d="M932.48,514.13l-.21,40-17,5.15"/><path class="cls-19" d="M932.48,464.46q0,20.49,0,41L915.22,509"/><path class="cls-19" d="M932.47,417q-.11,19.22-.2,38.43L915.37,459"/><path class="cls-20" d="M778.84,660.92,902,617.38,1000.59,638,866.73,685.58Z"/><path class="cls-8" d="M943.81,498.51l.54,3.74,10.48,5.11-.13-3.59Z"/><path class="cls-17" d="M802.53,546.38l.37,105.5,84.22-29.25q.68-55.07,1.36-110.13Z"/><path class="cls-21" d="M857.27,544.86l8.21,13-.21,114.32H856.9Z"/><path class="cls-22" d="M856.9,672.14l-9-1.86q.11-63.4.2-126.82l9.53.47Q857.27,608,856.9,672.14Z"/><polygon class="cls-21" points="782.03 526.01 842.96 434.88 933.72 447.47 874.36 545.8 782.03 526.01"/><path class="cls-21" d="M874.43,554l-.07-8.2,59.36-98.33q24.19,32.5,48.4,65l.23,7.79-47.86-63.21Z"/><path class="cls-23" d="M782.41,534.11c0,2.58,0,5.17,0,7.75l91.44,20.51c.21-2.79.41-5.58.62-8.37Z"/><path class="cls-21" d="M874.43,554c-.21,2.79-.41,5.58-.62,8.37q30.63-48.95,61.28-97.88l51.57,68.79,1-6.46-53.18-69.75Z"/><path class="cls-23" d="M983.36,528.59l-82.79-9q17.26-27.48,34.55-54.94Z"/><path class="cls-22" d="M955.83,640.83l-9-1.85L947,512.16l8.64,0Z"/><path class="cls-21" d="M956.2,513.56q4.11,6.48,8.21,13l-.21,114.32h-8.37Z"/><path class="cls-21" d="M782,526q.19,4.05.38,8.1l92,19.89q0-4.11-.07-8.2Z"/><path class="cls-7" d="M818.65,550l.06,37.92L848,582.29l0-25.69Z"/><path class="cls-7" d="M878.39,554.86q-.06,10.07-.11,20.14l-12.84,4,0-18.46,8.34,1.87Q876.09,558.61,878.39,554.86Z"/><path class="cls-18" d="M876.34,588.19l3.27-.93.27,21.33-3.34,1.16Q876.44,599,876.34,588.19Z"/><path class="cls-20" d="M760.91,679.65l18.36-5.86a409,409,0,0,0,86.12,3,412.62,412.62,0,0,0,135-33.24l45.95,8.94L881.8,720.4Z"/><path class="cls-24" d="M881.8,720.4q-.31,7-.62,14L1046,665.31l.41-13.43Z"/><path class="cls-24" d="M881.18,719.94l0,14.49L761.67,693.72q-.39-7-.76-14.07Z"/><path class="cls-24" d="M866.73,685.58l0,14.49-87.43-26.28-.43-12.87Z"/><path class="cls-24" d="M866.73,685.58l0,14.49,133.47-48.65.42-13.43Z"/><path class="cls-23" d="M9.85,325.26l1.74,19.23L654,448.14l2-21.53Z"/><path class="cls-25" d="M1063.39,300.5l-10.83-1.61L898.24,46.36,655.41,437.67l.65-11.06Q777.14,228.46,898.24,30.33Z"/><path class="cls-26" d="M1052.56,298.89,1009,294l1.71-25.83L887.2,64.14l11-17.78Z"/><path class="cls-12" d="M634.78,733.66s-9.7,12-10.31,12.7c2,8.82,10.31,3.52,10.31,3.52l10.79-14.09.24-286.48-20.13-30.05H611.33l24.18,35.83Z"/></svg>