<svg width="50" height="50" viewBox="0 0 50 50" fill="none" xmlns="http://www.w3.org/2000/svg">
<path d="M40.3076 2.11234C41.4826 0.742542 42.9026 -0.132326 44.7726 0.0176512C45.9726 0.115137 47.0051 0.602563 47.8426 1.47243C49.7526 3.45963 49.6176 5.87677 47.4351 8.60386C47.5701 8.69385 47.7026 8.78134 47.8351 8.87132C50.2676 10.4886 50.7251 13.7856 48.8201 16.0028C48.6451 16.2052 48.4551 16.3977 48.2651 16.5877C37.8476 27.0061 27.4301 37.4245 17.0101 47.843C16.6176 48.2354 16.2551 48.6628 15.8201 48.9978C13.7501 50.5926 10.8576 50.2526 9.17509 48.2404C7.52509 46.2682 7.75759 43.3886 9.63759 41.5914C11.0676 40.2241 12.4201 38.7743 13.7526 37.417C13.1076 36.7721 12.4326 36.0972 11.7601 35.4273C10.6976 36.4722 9.53259 37.562 8.43509 38.7143C6.97759 40.2466 4.85509 40.7515 2.95509 39.9367C1.04758 39.1193 -0.127415 37.2296 0.00758486 35.1549C0.0875849 33.9326 0.587585 32.8852 1.46258 32.0328C8.38259 25.2939 15.3051 18.5549 22.2251 11.8159C25.6801 8.45138 29.1876 5.14188 32.5651 1.7024C34.8176 -0.589758 38.2951 -0.582259 40.3076 2.11234ZM5.24759 30.6256C7.80759 31.0905 9.26509 32.5653 9.71009 35.2124C10.1851 34.6999 10.6051 34.2875 10.9701 33.8351C11.1301 33.6351 11.2701 33.3526 11.2751 33.1052C11.3051 31.7054 11.8126 30.5281 12.8126 29.5532C13.5701 28.8158 14.3326 28.0809 15.0676 27.3186C15.2101 27.1711 15.3076 26.9161 15.3076 26.7086C15.3251 24.8939 15.3201 23.0792 15.3176 21.267C15.3176 21.1495 15.2926 21.032 15.2801 20.917C15.2126 20.8695 15.1451 20.8245 15.0776 20.777C14.4001 21.5244 13.7826 22.3393 13.0276 22.9992C12.3076 23.6291 11.9626 24.294 12.0801 25.2514C12.1526 25.8463 12.0926 26.4587 12.0926 27.0636C12.0926 27.4435 12.0926 27.821 12.0926 28.2009C11.5226 28.2009 11.0251 28.2009 10.4726 28.2009C10.4726 27.3361 10.4726 26.4912 10.4726 25.5313C8.69759 27.2661 7.00509 28.9133 5.24759 30.6256ZM19.3526 33.0877C19.3626 31.308 17.9176 29.8432 16.1401 29.8382C14.3801 29.8332 12.9251 31.2605 12.9051 33.0127C12.8826 34.7974 14.3176 36.2697 16.0926 36.2872C17.8726 36.3047 19.3426 34.8624 19.3526 33.0877ZM4.83259 38.7068C6.61009 38.7093 8.06509 37.2546 8.06259 35.4748C8.06009 33.7176 6.62259 32.2703 4.86759 32.2578C3.08509 32.2453 1.62009 33.6851 1.61259 35.4648C1.60509 37.2446 3.05509 38.7043 4.83259 38.7068ZM12.9101 48.3854C14.6876 48.3829 16.1351 46.9206 16.1276 45.1409C16.1201 43.3836 14.6776 41.9439 12.9226 41.9364C11.1401 41.9289 9.68259 43.3761 9.68009 45.1534C9.67509 46.9331 11.1301 48.3879 12.9101 48.3854ZM37.9026 6.79663C36.8201 7.87647 35.8276 8.85382 34.8576 9.85367C34.7401 9.97616 34.6851 10.2086 34.6851 10.3886C34.6751 13.1082 34.6776 15.8253 34.6801 18.5449C34.6801 18.6649 34.7051 18.7873 34.7251 18.9723C35.6951 18.0025 36.5976 17.0801 37.5251 16.1802C37.7976 15.9153 37.9151 15.6503 37.9126 15.2654C37.8951 12.6483 37.9026 10.0286 37.9026 7.41154C37.9026 7.24906 37.9026 7.08659 37.9026 6.79663ZM29.8376 23.8466C30.8801 22.8067 31.8401 21.8719 32.7701 20.907C32.9326 20.7395 33.0501 20.4496 33.0526 20.2171C33.0726 17.5325 33.0651 14.8454 33.0626 12.1608C33.0626 12.0208 33.0426 11.8809 33.0276 11.6659C31.9701 12.7232 30.9701 13.7131 29.9876 14.7204C29.8801 14.8304 29.8451 15.0504 29.8426 15.2204C29.8326 16.8326 29.8376 18.4424 29.8376 20.0546C29.8376 21.2745 29.8376 22.4943 29.8376 23.8466ZM25.0001 28.7108C26.0326 27.6735 26.9576 26.7311 27.9001 25.8088C28.1326 25.5813 28.2351 25.3538 28.2326 25.0214C28.2201 22.3518 28.2251 19.6847 28.2251 17.0151C28.2251 16.8726 28.2251 16.7326 28.2251 16.4577C27.1226 17.5625 26.1176 18.5649 25.1226 19.5797C25.0426 19.6622 25.0051 19.8197 25.0051 19.9397C24.9976 22.8092 25.0001 25.6788 25.0001 28.7108ZM42.7426 2.10234C42.5676 2.21482 42.4726 2.25731 42.4026 2.3248C41.4826 3.22967 40.5576 4.13203 39.6551 5.05439C39.5476 5.16188 39.5251 5.38684 39.5226 5.55932C39.5151 8.27641 39.5176 10.9935 39.5176 13.7106C39.5176 13.8306 39.5426 13.9481 39.5651 14.1555C40.5526 13.1582 41.4651 12.2233 42.4001 11.306C42.6451 11.066 42.7526 10.826 42.7501 10.4761C42.7351 7.95896 42.7426 5.44434 42.7426 2.92721C42.7426 2.68475 42.7426 2.43729 42.7426 2.10234ZM23.3876 21.302C22.3426 22.3493 21.3851 23.2892 20.4576 24.2565C20.2951 24.4265 20.1776 24.7114 20.1751 24.9464C20.1526 26.6262 20.1626 28.3059 20.1626 29.9857C20.1626 30.1356 20.1476 30.2981 20.2001 30.4331C20.4826 31.158 20.7826 31.8754 21.0826 32.6128C21.7226 31.9729 22.4226 31.3005 23.0851 30.5931C23.2476 30.4206 23.3701 30.1381 23.3751 29.9057C23.4001 28.3434 23.3876 26.7811 23.3876 25.2189C23.3876 23.9591 23.3876 22.7042 23.3876 21.302ZM17.7426 44.8334C18.8351 43.7361 19.8251 42.7562 20.7901 41.7564C20.9076 41.6339 20.9601 41.4014 20.9601 41.219C20.9726 39.3067 20.9676 37.397 20.9651 35.4848C20.9651 35.3623 20.9401 35.2424 20.9251 35.1024C20.5176 35.4998 20.1701 35.8898 19.7701 36.2172C19.2326 36.6596 18.6751 37.0896 18.0851 37.4595C17.8401 37.6145 17.7326 37.732 17.7326 38.0219C17.7451 39.9991 17.7401 41.9789 17.7401 43.9561C17.7426 44.2035 17.7426 44.4485 17.7426 44.8334ZM41.9351 20.6346C43.0226 19.5472 44.0126 18.5674 44.9801 17.5675C45.0976 17.445 45.1526 17.2126 45.1526 17.0326C45.1651 15.1204 45.1601 13.2057 45.1576 11.2935C45.1576 11.1735 45.1326 11.051 45.1076 10.8235C44.6026 11.346 44.1751 11.7934 43.7401 12.2358C43.1526 12.8357 42.3301 13.3332 42.0351 14.0505C41.7326 14.7854 41.9376 15.7303 41.9326 16.5827C41.9301 17.8875 41.9351 19.1923 41.9351 20.6346ZM40.3226 15.6678C39.2401 16.7476 38.2476 17.7275 37.2776 18.7248C37.1601 18.8473 37.1051 19.0798 37.1026 19.2598C37.0901 21.172 37.0951 23.0867 37.0976 24.9989C37.0976 25.1189 37.1226 25.2414 37.1451 25.4663C37.6851 24.9114 38.1501 24.429 38.6201 23.9491C39.1826 23.3741 39.9626 22.8892 40.2476 22.1993C40.5301 21.5094 40.3201 20.6146 40.3226 19.8097C40.3251 18.4699 40.3226 17.1326 40.3226 15.6678ZM32.2576 30.3106C33.3451 29.2208 34.3351 28.2434 35.3026 27.2436C35.4201 27.1211 35.4751 26.8886 35.4751 26.7061C35.4876 24.7939 35.4826 22.8817 35.4801 20.967C35.4801 20.847 35.4551 20.7245 35.4376 20.5496C34.4001 21.5844 33.4101 22.5618 32.4376 23.5566C32.3276 23.6691 32.2701 23.8766 32.2651 24.044C32.2476 24.8664 32.2576 25.6888 32.2576 26.5112C32.2576 27.7335 32.2576 28.9533 32.2576 30.3106ZM30.6451 25.3289C29.5526 26.4262 28.5626 27.406 27.5951 28.4059C27.4776 28.5284 27.4276 28.7608 27.4251 28.9433C27.4126 30.8555 27.4176 32.7677 27.4201 34.6824C27.4201 34.7999 27.4451 34.9174 27.4626 35.0874C28.5026 34.05 29.4951 33.0752 30.4676 32.0778C30.5851 31.9554 30.6351 31.7229 30.6376 31.5404C30.6526 30.3156 30.6451 29.0908 30.6451 27.866C30.6451 27.0661 30.6451 26.2687 30.6451 25.3289ZM22.5801 39.9941C23.6726 38.8968 24.6626 37.917 25.6301 36.9171C25.7476 36.7946 25.7976 36.5622 25.7976 36.3797C25.8101 34.4675 25.8051 32.5528 25.8026 30.6406C25.8026 30.5231 25.7776 30.4056 25.7576 30.2156C24.7126 31.2655 23.7226 32.2453 22.7551 33.2452C22.6376 33.3676 22.5876 33.6001 22.5876 33.7826C22.5726 35.0074 22.5801 36.2322 22.5801 37.457C22.5801 38.2569 22.5801 39.0543 22.5801 39.9941ZM16.9351 25.4688C18.0426 24.3615 19.0601 23.3491 20.0651 22.3218C20.1501 22.2343 20.1576 22.0443 20.1576 21.9019C20.1626 20.1046 20.1626 18.3074 20.1601 16.5102C20.1601 16.4052 20.1326 16.3027 20.1101 16.1452C19.0751 17.1526 18.0826 18.1049 17.1101 19.0798C16.9926 19.1998 16.9451 19.4372 16.9451 19.6197C16.9301 20.8795 16.9376 22.1393 16.9376 23.3991C16.9351 24.0465 16.9351 24.6939 16.9351 25.4688ZM25.0001 11.3709C23.9576 12.3858 23.0026 13.2982 22.0776 14.238C21.9126 14.4055 21.7926 14.6904 21.7876 14.9254C21.7626 16.6702 21.7726 18.4124 21.7751 20.1571C21.7751 20.2796 21.8001 20.3996 21.8201 20.5896C22.8576 19.5497 23.8451 18.5674 24.8201 17.575C24.9151 17.48 24.9926 17.3201 24.9926 17.1876C25.0026 15.2954 25.0001 13.4006 25.0001 11.3709ZM26.6126 15.8153C27.1826 15.2379 27.6426 14.7729 28.1001 14.3055C28.6751 13.7206 29.4726 13.2232 29.7626 12.5208C30.0526 11.8159 29.8376 10.9035 29.8376 10.0811C29.8401 8.98131 29.8376 7.87897 29.8376 6.65166C28.9526 7.51653 28.1851 8.3314 27.3426 9.06379C26.7726 9.55872 26.5651 10.0886 26.5926 10.841C26.6551 12.4433 26.6126 14.0505 26.6126 15.8153ZM34.6776 2.08484C34.4876 2.20982 34.3676 2.26731 34.2751 2.3573C33.3801 3.21467 32.4826 4.07204 31.6026 4.94941C31.4951 5.05689 31.4601 5.27686 31.4576 5.44684C31.4476 7.14158 31.4501 8.83383 31.4526 10.5286C31.4526 10.6336 31.4801 10.7385 31.5001 10.901C32.5326 9.86867 33.5176 8.88882 34.4951 7.89647C34.5901 7.80148 34.6676 7.64151 34.6676 7.50903C34.6801 5.73429 34.6776 3.95956 34.6776 2.08484ZM44.3801 9.29126C45.2226 8.45388 46.0251 7.7115 46.7626 6.90912C47.5501 6.05674 47.7601 5.0244 47.4526 3.90707C47.0701 2.52727 45.6201 1.48243 44.3801 1.6774C44.3801 4.18703 44.3801 6.69665 44.3801 9.29126ZM39.0626 3.23717C38.5551 2.24482 37.3901 1.55992 36.3226 1.6624C36.3226 3.10469 36.3226 4.54697 36.3226 5.96676C37.2351 5.05689 38.1451 4.15203 39.0626 3.23717ZM46.7976 15.7328C47.9276 14.7854 48.6026 13.7306 48.3201 12.2683C48.1401 11.341 47.6476 10.6411 46.7976 10.1111C46.7976 12.0233 46.7976 13.8406 46.7976 15.7328ZM16.1151 37.872C15.9126 37.9095 15.7026 37.8845 15.6076 37.9769C14.8326 38.7318 14.0801 39.5067 13.3901 40.2041C14.3001 40.5916 15.2176 40.9815 16.1151 41.3614C16.1151 40.2716 16.1151 39.1193 16.1151 37.872ZM18.5226 26.2912C17.8851 26.9436 17.2501 27.5885 16.6501 28.2034C17.2176 28.3784 17.8626 28.5759 18.5226 28.7808C18.5226 27.9535 18.5226 27.1136 18.5226 26.2912Z" fill="#4273ED"/>
</svg>
