<svg width="44" height="44" viewBox="0 0 44 44" fill="none" xmlns="http://www.w3.org/2000/svg">
<path d="M35.472 1.8614C36.4818 0.686428 37.6742 -0.0682846 39.2516 0.00432626C40.2944 0.0527335 41.2074 0.433391 41.9642 1.1573C42.8904 2.04623 43.3326 3.1398 43.282 4.42039C43.2314 5.68558 42.6374 6.69773 41.709 7.55806C42.919 8.26657 43.6934 9.23911 43.9288 10.5967C44.1466 11.8487 43.8386 12.9709 43.0576 13.9632C42.875 14.1943 42.6638 14.4033 42.4548 14.6123C33.3094 23.7613 24.1618 32.9081 15.012 42.0548C14.6358 42.4311 14.2838 42.8426 13.8636 43.1572C12.0398 44.5236 9.50762 44.1936 8.05562 42.4289C6.62782 40.6928 6.82582 38.1735 8.46922 36.6134C9.69242 35.4538 10.8672 34.2459 12.0618 33.0577C12.1124 33.0071 12.152 32.9455 12.1388 32.9609C11.5294 32.3536 10.9398 31.7661 10.2468 31.0752C10.1302 31.2248 9.96962 31.4712 9.76722 31.6803C8.94442 32.5296 8.10842 33.3679 7.27902 34.2085C5.60482 35.9049 2.90762 35.9049 1.23122 34.2107C-0.429783 32.5318 -0.416583 29.8474 1.27742 28.1972C7.72562 21.913 14.1782 15.6355 20.6286 9.35573C23.3302 6.72633 26.0714 4.13655 28.7114 1.44774C30.6496 -0.521553 33.701 -0.508351 35.472 1.8614ZM14.4972 24.7074C14.5302 24.7492 14.561 24.791 14.594 24.8329C16.805 25.2091 18.0898 26.5183 18.4814 28.8375C18.642 28.6438 18.7278 28.525 18.8312 28.4216C24.087 23.1628 29.345 17.9062 34.603 12.6496C36.7458 10.5065 38.9018 8.37658 41.027 6.21806C42.534 4.68663 41.9356 2.19145 39.9226 1.55776C38.7434 1.1881 37.7644 1.55556 36.9064 2.41589C29.565 9.76939 22.2148 17.1141 14.8646 24.461C14.7612 24.5622 14.6204 24.626 14.4972 24.7074ZM15.6434 39.4804C15.7974 39.2956 15.8744 39.1856 15.9668 39.0932C24.505 30.5537 33.0432 22.0164 41.5814 13.4769C41.6848 13.3735 41.7904 13.2679 41.8872 13.1557C43.0686 11.8069 42.6924 9.72978 41.126 8.85845C40.7718 8.66042 40.554 8.69123 40.257 8.99047C32.7638 16.5046 25.2574 24.0055 17.7554 31.5086C17.63 31.6341 17.5068 31.7617 17.388 31.8937C16.5058 32.8707 15.4102 33.3591 14.0924 33.3525C13.956 33.3525 13.7778 33.3723 13.6898 33.4559C13.0188 34.0962 12.3654 34.7563 11.657 35.4604C13.9472 35.8411 15.2364 37.1481 15.6434 39.4804ZM4.63902 26.9562C6.87422 27.35 8.15902 28.6592 8.54842 30.9674C8.85422 30.6351 9.06102 30.3579 9.31622 30.1422C9.75622 29.7704 10.04 29.3655 9.96082 28.7472C9.93002 28.5096 10.0268 28.2522 10.0862 28.0101C10.3348 26.9672 11.0498 26.2565 11.7824 25.5282C19.2206 18.1064 26.6456 10.6715 34.0772 3.24321C34.1916 3.12879 34.3368 3.04738 34.4446 2.96597C33.8352 1.8196 32.6186 1.24311 31.457 1.45874C30.7398 1.59296 30.2008 2.00003 29.6926 2.4929C21.4448 10.5461 13.1904 18.5905 4.93822 26.6393C4.84582 26.7295 4.76002 26.8286 4.63902 26.9562ZM17.0316 29.0773C17.025 27.5151 15.7358 26.2455 14.1672 26.2565C12.6228 26.2675 11.36 27.5393 11.3578 29.0883C11.3556 30.6549 12.6338 31.9333 14.2002 31.9311C15.7622 31.9311 17.0404 30.6439 17.0316 29.0773ZM7.09642 31.2424C7.10522 29.6758 5.83142 28.3886 4.26722 28.3864C2.71842 28.3842 1.44022 29.6384 1.42262 31.183C1.40502 32.7518 2.66782 34.0478 4.22982 34.061C5.79622 34.0742 7.08762 32.8046 7.09642 31.2424ZM11.3666 42.5785C12.9308 42.5741 14.2046 41.2869 14.1936 39.7203C14.1848 38.1757 12.9132 36.9083 11.3688 36.9039C9.80022 36.8995 8.51982 38.1735 8.51982 39.7401C8.51762 41.3045 9.80022 42.5829 11.3666 42.5785Z" fill="#4273ED"/>
</svg>
