<svg width="43" height="44" viewBox="0 0 43 44" fill="none" xmlns="http://www.w3.org/2000/svg">
<path d="M29.1268 6.89792C29.9009 6.17329 30.5954 5.52608 31.2878 4.87672C32.8897 3.37586 34.4938 1.87501 36.0871 0.365564C36.3429 0.12259 36.6096 -0.00212288 36.9729 2.73385e-05C38.6781 0.0129286 40.381 0.00432777 42.0862 0.00647798C42.7635 0.00647798 42.9935 0.238701 42.9935 0.920319C42.9935 7.7107 42.9914 14.5011 43 21.2893C43 21.6505 42.8817 21.9193 42.6194 22.1644C36.0398 28.3248 29.4644 34.4916 22.889 40.6563C22.1838 41.3186 21.4936 42.0002 20.7603 42.6302C20.5324 42.8259 20.1841 42.9785 19.8873 42.985C18.1844 43.0172 16.4792 43.0022 14.7741 43C14.1011 43 13.8753 42.7657 13.8732 42.0797C13.871 40.0134 13.8732 37.947 13.8732 35.8828C13.8732 35.728 13.8732 35.5732 13.8732 35.3947C11.5574 35.3947 9.28033 35.3947 6.93874 35.3947C6.93874 35.5431 6.93874 35.6957 6.93874 35.8463C6.93874 37.9126 6.93874 39.979 6.93874 42.0432C6.93874 42.7807 6.72157 42.9979 5.9862 42.9979C4.29613 42.9979 2.60606 43 0.915992 42.9979C0.236524 42.9979 0.00645065 42.7678 0.00645065 42.0883C0.00645065 35.298 0.00860086 28.5076 0 21.7193C0 21.3581 0.116112 21.0915 0.378438 20.8464C7.67412 14.013 14.9633 7.17314 22.2676 0.348362C22.474 0.154843 22.8245 0.0258299 23.1084 0.0215295C24.8264 -0.00857352 26.5466 0.00647798 28.2646 0.00647798C28.9483 0.00647798 29.0967 0.13119 29.1096 0.845062C29.1333 2.15884 29.1225 3.47477 29.1268 4.78856C29.1268 5.45512 29.1268 6.11739 29.1268 6.89792ZM41.6067 2.30506C39.9037 3.90052 38.291 5.40997 36.6784 6.92157C31.4748 11.8026 26.2692 16.6814 21.0721 21.5688C20.9345 21.6978 20.8184 21.9279 20.8184 22.1107C20.8055 28.1915 20.8076 34.2723 20.8098 40.3531C20.8098 40.4413 20.8356 40.5294 20.8549 40.6498C20.9581 40.5595 21.0248 40.5036 21.0872 40.4456C27.841 34.1153 34.5948 27.783 41.3551 21.457C41.5572 21.2678 41.6153 21.0764 41.6153 20.8163C41.6088 14.8215 41.611 8.82666 41.611 2.83401C41.6067 2.6921 41.6067 2.55448 41.6067 2.30506ZM15.2601 22.2203C15.2601 22.4053 15.2601 22.5622 15.2601 22.717C15.2601 24.7684 15.2601 26.8175 15.2601 28.8688C15.2601 29.6063 15.0429 29.8257 14.3097 29.8257C11.7101 29.8257 9.11261 29.8257 6.513 29.8257C5.77118 29.8257 5.55401 29.6106 5.55401 28.8774C5.55401 26.8132 5.55401 24.7469 5.55401 22.6826C5.55401 22.53 5.55401 22.3773 5.55401 22.2311C4.13486 22.2311 2.77163 22.2311 1.41484 22.2311C1.41484 28.7011 1.41484 35.1367 1.41484 41.5873C2.79743 41.5873 4.16067 41.5873 5.55401 41.5873C5.55401 41.4067 5.55401 41.2498 5.55401 41.0928C5.55401 39.0415 5.55401 36.9923 5.55401 34.941C5.55401 34.2013 5.76903 33.9863 6.5044 33.9863C9.10401 33.9863 11.7015 33.9863 14.3011 33.9863C15.0429 33.9863 15.2601 34.2013 15.2601 34.9324C15.2622 36.9966 15.2601 39.063 15.2601 41.1272C15.2601 41.2799 15.2601 41.4325 15.2601 41.5809C16.6792 41.5809 18.0403 41.5809 19.3992 41.5809C19.3992 35.1109 19.3992 28.6753 19.3992 22.2182C18.0253 22.2203 16.6749 22.2203 15.2601 22.2203ZM27.7399 2.33086C27.5916 2.45772 27.5077 2.52653 27.426 2.59964C20.6829 8.92127 13.9377 15.2407 7.20322 21.571C7.05916 21.7064 6.9495 21.9559 6.94735 22.1537C6.93014 24.1039 6.93659 26.0542 6.93874 28.0023C6.93874 28.1399 6.95165 28.2797 6.9581 28.4173C9.27603 28.4173 11.5531 28.4173 13.871 28.4173C13.871 28.2431 13.871 28.0883 13.871 27.9335C13.871 25.9252 13.8861 23.919 13.8603 21.9107C13.8538 21.4033 14.0173 21.0506 14.3871 20.7066C18.7585 16.6276 23.1191 12.5379 27.4711 8.43747C27.6152 8.30201 27.7227 8.05043 27.7249 7.85261C27.7442 6.14749 27.7356 4.44452 27.7356 2.7394C27.7399 2.63189 27.7399 2.52223 27.7399 2.33086ZM26.6842 1.39552C25.536 1.39552 24.5146 1.38477 23.4932 1.40627C23.3019 1.41057 23.0675 1.50088 22.9299 1.62989C16.2191 7.90422 9.51685 14.1871 2.81678 20.4722C2.72217 20.5625 2.63831 20.6636 2.5007 20.812C3.55861 20.812 4.5262 20.7969 5.4938 20.8206C5.83998 20.8292 6.08296 20.7216 6.33238 20.4873C11.3639 15.759 16.4018 11.0371 21.4376 6.31521C23.1535 4.7047 24.8715 3.09419 26.6842 1.39552ZM16.3266 20.812C17.4103 20.812 18.3628 20.7948 19.3132 20.8206C19.6874 20.8313 19.9561 20.7152 20.2292 20.4593C26.6412 14.4366 33.0596 8.42242 39.478 2.40612C39.8091 2.09649 40.1359 1.78256 40.5445 1.39552C39.4349 1.39552 38.4437 1.40627 37.4524 1.38907C37.1557 1.38477 36.9428 1.47292 36.7278 1.67719C30.5675 7.46127 24.4006 13.2389 18.236 19.0187C17.6253 19.5863 17.019 20.1583 16.3266 20.812Z" fill="#4273ED"/>
</svg>
