<svg width="51" height="51" viewBox="0 0 51 51" fill="none" xmlns="http://www.w3.org/2000/svg">
<path d="M33.7215 6.2135C33.8694 6.08347 33.9459 6.04012 33.9918 5.97383C34.6216 5.08912 35.4733 4.84435 36.5367 4.92339C37.6944 5.01008 38.8648 4.94124 40.0302 4.94379C40.8615 4.94634 41.1241 5.2115 41.1241 6.05797C41.1267 8.76566 41.1241 11.4708 41.1241 14.1785C41.1241 14.3646 41.1241 14.5507 41.1241 14.8108C41.3307 14.8108 41.5117 14.8108 41.6928 14.8108C44.4162 14.8108 47.1396 14.8108 49.8655 14.8108C50.7402 14.8108 50.9952 15.0683 50.9952 15.9428C50.9977 17.3987 51.0207 18.8545 50.9773 20.3103C50.9671 20.6494 50.8141 21.0676 50.5795 21.3021C40.8309 31.0799 31.0669 40.8424 21.2902 50.5921C21.0658 50.8165 20.6655 50.9797 20.3467 50.9797C13.9233 51.0026 7.49727 50.9975 1.07382 50.995C0.275666 50.995 0.00536565 50.7171 0.00536565 49.9063C0.00536565 42.9509 0.000265654 35.9956 0.0232157 29.0402C0.0232157 28.7062 0.191516 28.2881 0.426116 28.0535C9.61376 18.8367 18.8193 9.62998 28.0401 0.438612C28.2772 0.204047 28.6878 0.0434215 29.0244 0.0281238C30.256 -0.0203189 31.4902 0.00517728 32.7244 0.0102765C33.4257 0.0128261 33.7164 0.308582 33.7189 1.01738C33.724 2.71287 33.7215 4.40582 33.7215 6.2135ZM5.75817 44.0855C8.46117 41.3804 11.0494 38.7823 13.6504 36.1995C13.9029 35.9471 13.9921 35.6973 13.9921 35.3454C13.9794 32.5026 13.9998 29.6572 13.9717 26.8144C13.9666 26.2127 14.1604 25.792 14.5812 25.3739C20.3085 19.6678 26.023 13.9439 31.7452 8.23279C31.9798 7.99823 32.092 7.76876 32.0844 7.42966C32.064 6.36902 32.0767 5.30583 32.0767 4.24264C32.0767 3.80666 32.0767 3.37322 32.0767 2.84545C31.8906 3.01628 31.7911 3.10551 31.6968 3.19985C23.1568 11.7411 14.6169 20.2823 6.06927 28.8159C5.82702 29.0581 5.75052 29.3003 5.75052 29.6266C5.75817 34.2338 5.75562 38.8435 5.75562 43.4507C5.75817 43.6164 5.75817 43.7796 5.75817 44.0855ZM20.5635 34.1726C20.7063 34.0502 20.77 34.0018 20.8261 33.9457C26.9665 27.8062 33.1069 21.6693 39.2397 15.5222C39.3748 15.387 39.4666 15.1397 39.4692 14.9459C39.4845 12.6691 39.4794 10.3898 39.4794 8.11296C39.4794 8.03647 39.4666 7.95998 39.4539 7.8478C39.3672 7.90134 39.3213 7.91919 39.2881 7.95234C33.112 14.1275 26.9359 20.3027 20.7649 26.483C20.6578 26.59 20.5711 26.7736 20.5711 26.9215C20.5584 29.2977 20.5635 31.6791 20.5635 34.1726ZM48.1315 16.6083C48.1009 16.5573 48.0729 16.5089 48.0423 16.4579C47.8765 16.4579 47.7082 16.4579 47.5425 16.4579C45.4183 16.4579 43.2942 16.4655 41.1726 16.4502C40.8028 16.4477 40.5427 16.5471 40.2775 16.8148C34.2417 22.865 28.1982 28.9051 22.1572 34.9502C22.045 35.0624 21.943 35.1874 21.7747 35.376C22.0399 35.376 22.2082 35.376 22.374 35.376C24.4803 35.376 26.5866 35.3658 28.6929 35.3862C29.1009 35.3888 29.3865 35.2766 29.6772 34.9834C35.6875 28.9561 41.7081 22.939 47.7286 16.9244C47.8434 16.8021 47.9938 16.7128 48.1315 16.6083ZM1.68327 29.6394C1.68327 36.2352 1.68327 42.7827 1.68327 49.3148C7.71912 49.3148 13.7193 49.3148 19.7118 49.3148C19.7118 48.4938 19.7118 47.7111 19.7118 46.8875C19.4848 46.8875 19.2808 46.8875 19.0794 46.8875C14.4741 46.8875 9.86621 46.8875 5.26092 46.8875C4.35822 46.8875 4.11342 46.6377 4.11342 45.7224C4.11342 40.567 4.11342 35.4143 4.11342 30.2589C4.11342 30.0601 4.11342 29.8587 4.11342 29.6394C3.27447 29.6394 2.49417 29.6394 1.68327 29.6394ZM15.6624 27.1739C15.6624 31.5694 15.6624 35.9242 15.6624 40.2713C20.0535 40.2713 24.4063 40.2713 28.7617 40.2713C28.7617 39.1775 28.7617 38.1245 28.7617 37.018C28.5526 37.018 28.369 37.018 28.1854 37.018C25.4646 37.018 22.7412 37.018 20.0203 37.018C19.1814 37.018 18.9187 36.7528 18.9187 35.9114C18.9162 33.1884 18.9187 30.468 18.9187 27.745C18.9187 27.5614 18.9187 27.3779 18.9187 27.1714C17.8095 27.1739 16.7563 27.1739 15.6624 27.1739ZM7.02552 45.2226C7.13262 45.2328 7.19892 45.243 7.26267 45.243C11.4727 45.243 15.6828 45.2481 19.8954 45.2328C20.0866 45.2328 20.3212 45.1207 20.464 44.9855C21.0505 44.4348 21.6064 43.8535 22.1776 43.2875C22.5958 42.8744 23.0217 42.4716 23.4424 42.0637C23.4169 42.028 23.394 41.9897 23.3685 41.954C23.2027 41.954 23.0344 41.954 22.8687 41.954C20.4717 41.954 18.0772 41.954 15.6802 41.954C14.0329 41.954 13.9845 41.9056 13.9845 40.2611C13.9845 39.6084 13.9845 38.9531 13.9845 38.2698C11.6359 40.6129 9.35112 42.8999 7.02552 45.2226ZM38.2911 6.58829C37.4853 6.58829 36.7993 6.56279 36.121 6.60104C35.8788 6.61634 35.5881 6.72852 35.4198 6.89679C29.3304 12.9649 23.2537 19.0432 17.1771 25.124C17.0776 25.2234 16.9935 25.3356 16.8532 25.5039C17.5927 25.5039 18.2404 25.481 18.8881 25.5116C19.2655 25.5294 19.518 25.3968 19.7781 25.1342C25.8012 19.0967 31.8319 13.0694 37.8627 7.03957C37.98 6.92484 38.0922 6.79991 38.2911 6.58829ZM49.3479 17.6995C49.2025 17.8117 49.1005 17.8754 49.0164 17.9596C42.8989 24.0736 36.784 30.1875 30.6742 36.3041C30.5722 36.4061 30.4498 36.5514 30.4447 36.6789C30.4243 37.4565 30.4345 38.2367 30.4345 39.1112C30.585 38.9786 30.6615 38.9174 30.7278 38.8512C36.8554 32.7244 42.9831 26.6002 49.1031 20.4659C49.2306 20.3384 49.33 20.1217 49.3377 19.9406C49.3632 19.2216 49.3479 18.5001 49.3479 17.6995ZM2.88177 27.8266C2.90217 27.875 2.92512 27.9235 2.94552 27.9719C3.23112 27.9719 3.51927 27.9388 3.79977 27.9796C4.36077 28.0586 4.74582 27.8368 5.14107 27.4416C13.5739 18.9896 22.017 10.5478 30.46 2.10606C30.5824 1.98368 30.6997 1.85365 30.891 1.65478C30.5263 1.65478 30.2841 1.68538 30.052 1.64968C29.3737 1.54005 28.9249 1.83835 28.4532 2.31003C20.0968 10.6932 11.7226 19.061 3.35097 27.4289C3.20817 27.5742 3.03987 27.694 2.88177 27.8266ZM21.3846 47.9533C23.3812 45.9569 25.3983 43.9376 27.3822 41.954C27.015 41.954 26.5534 41.9336 26.0944 41.9642C25.9287 41.9744 25.7349 42.0688 25.6176 42.1886C24.2763 43.5119 22.9452 44.8428 21.6217 46.1813C21.5044 46.3011 21.4075 46.4924 21.3948 46.6581C21.3642 47.117 21.3846 47.581 21.3846 47.9533Z" fill="#4273ED"/>
</svg>
