<svg width="62" height="39" viewBox="0 0 62 39" fill="none" xmlns="http://www.w3.org/2000/svg">
<path d="M61.9817 19.5272C61.9817 22.0472 61.9383 24.5704 61.9972 27.0905C62.0375 28.8373 61.4144 30.25 60.2612 31.4623C58.4942 33.3269 56.2932 34.4724 53.9775 35.411C50.0839 36.9892 46.0136 37.826 41.8751 38.3415C36.5524 39.0065 31.2111 39.1497 25.8605 38.8474C19.8806 38.5101 13.9751 37.7179 8.32998 35.5256C5.90268 34.5837 3.60248 33.4064 1.75488 31.4655C0.601681 30.2532 0.000280513 28.8405 0.0157805 27.0968C0.0622805 22.184 0.111881 17.2649 0.000280514 12.3553C-0.0555195 9.87662 0.936481 8.0916 2.71588 6.62158C4.90448 4.8111 7.44648 3.707 10.0908 2.82881C14.2076 1.46379 18.4484 0.770149 22.7481 0.375599C27.2338 -0.0348605 31.7257 -0.108043 36.2207 0.149687C42.2843 0.496509 48.2673 1.30788 53.9806 3.58291C55.9088 4.34974 57.7471 5.29475 59.3467 6.65976C60.5681 7.70023 61.6004 8.88706 61.9011 10.5607C61.9662 10.9139 61.9786 11.283 61.9817 11.6425C61.9848 14.2708 61.9817 16.899 61.9817 19.5272ZM10.0567 17.3826C16.8705 19.7786 23.8982 20.5167 31.0158 20.5136C38.1396 20.5104 45.1735 19.7849 51.9718 17.3763C37.9939 13.3671 24.0253 13.3608 10.0567 17.3826ZM59.9326 11.1398C59.8737 10.1503 59.3374 9.25298 58.2524 8.33342C56.8574 7.14977 55.2547 6.34158 53.5838 5.67339C48.5773 3.672 43.3352 2.78426 38.0125 2.34517C31.0809 1.77562 24.1679 1.9888 17.3045 3.217C13.693 3.86291 10.1497 4.7761 6.81718 6.39567C5.41908 7.07659 4.08918 7.86569 3.03208 9.05252C2.51128 9.63798 2.10208 10.2871 2.04938 11.248C3.54048 9.88298 5.16488 8.94752 6.89468 8.19978C12.4437 5.80066 18.2996 4.78565 24.2516 4.40383C27.9809 4.16519 31.735 4.16837 35.4736 4.25746C40.0771 4.36565 44.6279 5.02747 49.1043 6.16976C52.1578 6.94931 55.1369 7.94523 57.8463 9.64434C58.5655 10.0962 59.2351 10.6371 59.9326 11.1398ZM59.2537 13.2717C58.395 12.6003 57.6603 11.9353 56.845 11.4071C54.6626 9.99435 52.2353 9.15752 49.7615 8.4766C44.7364 7.09568 39.609 6.45294 34.4196 6.24612C27.085 5.95339 19.8279 6.50385 12.6979 8.36206C9.84898 9.10343 7.06828 10.058 4.61308 11.7826C3.98998 12.2216 3.44128 12.7721 2.79338 13.3258C3.11268 13.6471 3.33588 13.8667 3.50018 14.0289C4.78048 13.3862 5.96158 12.7117 7.20468 12.1866C12.67 9.88298 18.4329 8.96024 24.2764 8.48297C29.9339 8.0216 35.5883 8.11387 41.221 8.83933C47.2288 9.61252 53.1219 10.8153 58.4973 14.083C58.6864 13.8794 58.9003 13.6503 59.2537 13.2717ZM56.5722 15.4512C56.5784 15.3621 56.5877 15.2762 56.5939 15.1871C55.0222 14.5285 53.4784 13.7744 51.8695 13.2303C45.6075 11.1048 39.1192 10.4366 32.5689 10.2839C28.2134 10.1821 23.8734 10.4303 19.5582 11.0507C15.8878 11.5789 12.2639 12.333 8.79498 13.7171C7.64798 14.1753 6.54438 14.7385 5.41908 15.2571C5.86858 15.674 6.27158 15.9317 6.70558 16.1131C6.92568 16.2053 7.23568 16.234 7.45268 16.1481C12.7878 13.9812 18.3802 13.0648 24.0563 12.5971C29.4627 12.1516 34.866 12.2216 40.26 12.8198C45.1549 13.3639 49.963 14.2771 54.5634 16.1576C54.7246 16.2244 54.9478 16.2849 55.0873 16.2244C55.5957 15.9921 56.0793 15.7121 56.5722 15.4512ZM41.9712 34.1924C41.6519 34.221 41.3667 34.2496 41.0815 34.2719C38.4899 34.4692 35.9014 34.7524 33.3036 34.8415C28.6412 35.0005 23.9819 34.7969 19.3567 34.1192C13.1877 33.2187 7.14888 31.9173 1.92848 27.6823C2.13618 28.2614 2.18268 28.7832 2.45858 29.095C3.18708 29.9255 3.93108 30.7941 4.82078 31.4178C7.34418 33.1837 10.2303 34.1255 13.1629 34.8637C21.8646 37.0592 30.6872 37.3424 39.5687 36.5056C40.3716 36.4292 41.1683 36.3083 41.9681 36.2097C41.9712 35.5065 41.9712 34.8733 41.9712 34.1924ZM41.9712 25.9864C41.6519 26.015 41.3667 26.0436 41.0815 26.0659C38.4899 26.2632 35.9014 26.5464 33.3067 26.6355C28.6226 26.7977 23.9447 26.5909 19.3009 25.9068C13.1505 25.0032 7.13028 23.6986 2.05558 19.5781C2.07108 19.7372 2.06798 19.8804 2.09898 20.0172C2.34388 21.0704 2.97008 21.8977 3.80708 22.4609C5.10288 23.3327 6.42658 24.2236 7.84638 24.8409C13.0947 27.1223 18.6592 27.9941 24.295 28.465C28.7621 28.8405 33.2323 28.8277 37.6994 28.4618C39.1254 28.3441 40.5452 28.1691 41.9681 28.0227C41.9712 27.3005 41.9712 26.6673 41.9712 25.9864ZM2.04318 23.6286C2.09898 24.5991 2.53298 25.2895 3.09718 25.9036C4.18528 27.0905 5.53998 27.8859 6.95978 28.5605C10.5744 30.2755 14.4122 31.1982 18.3213 31.841C25.3273 32.9896 32.3612 33.0914 39.4106 32.4169C40.2693 32.3342 41.1249 32.2069 41.9557 32.1019C41.9557 31.3764 41.9557 30.7464 41.9557 30.1164C40.3003 30.2659 38.6852 30.4346 37.0701 30.5491C29.7944 31.0646 22.5528 30.7973 15.3887 29.3496C10.6116 28.3855 5.97708 26.9886 2.04318 23.6286ZM41.9774 21.9263C41.1466 22.0186 40.384 22.114 39.6183 22.184C35.2597 22.5754 30.8949 22.6772 26.5239 22.464C21.8398 22.2349 17.1929 21.7227 12.6452 20.5104C8.86008 19.5017 5.20518 18.1844 2.17028 15.5021C2.15478 15.4862 2.10518 15.5117 2.04628 15.518C2.12378 16.4981 2.57638 17.319 3.29248 17.8694C4.46738 18.7731 5.66708 19.699 6.98458 20.3322C11.9849 22.7345 17.3541 23.6604 22.7915 24.2204C27.7732 24.7359 32.7642 24.755 37.7521 24.3509C39.1595 24.2363 40.5607 24.0613 41.9743 23.9118C41.9774 23.2277 41.9774 22.6136 41.9774 21.9263ZM44.042 21.6368C44.042 26.4159 44.042 31.1441 44.042 35.9042C44.7178 35.7706 45.344 35.6496 45.9609 35.5256C45.9609 30.7528 45.9609 26.0404 45.9609 21.2899C45.2944 21.4077 44.6651 21.5222 44.042 21.6368ZM48.0255 26.8805C50.5148 26.2759 52.9111 25.5313 55.1865 24.4145C56.6001 23.7209 57.9486 22.9254 59.015 21.7131C59.5234 21.134 59.9047 20.4913 59.9667 19.6004C56.4637 22.6072 52.2694 23.8163 48.0255 24.9077C48.0255 25.56 48.0255 26.1932 48.0255 26.8805ZM59.9636 23.7018C56.4606 26.715 52.2632 27.9177 48.0317 29.0091C48.0317 29.6741 48.0317 30.3041 48.0317 30.9819C50.5241 30.3773 52.9235 29.6296 55.1989 28.5127C56.6125 27.8191 57.961 27.0205 59.0243 25.8082C59.5265 25.2291 59.9109 24.5895 59.9636 23.7018ZM48.0751 22.7822C51.5161 21.8659 54.9385 20.889 57.8587 18.6681C58.5128 18.1685 59.0553 17.4908 59.5575 16.8226C59.8179 16.4758 59.8768 15.9699 60.0783 15.3971C59.1886 16.0462 58.488 16.6158 57.7347 17.0994C55.1865 18.7317 52.3748 19.7022 49.4918 20.4913C47.886 20.9304 47.886 20.924 48.0069 22.6104C48.0069 22.6454 48.0348 22.6836 48.0751 22.7822ZM48.0162 35.0737C50.5489 34.4596 52.9421 33.7024 55.2206 32.5823C56.6156 31.8951 57.9455 31.106 59.0026 29.9159C59.5141 29.34 59.9047 28.6973 59.9729 27.8C56.4668 30.8196 52.2694 32.0191 48.0193 33.1137C48.0162 33.7533 48.0162 34.3705 48.0162 35.0737Z" fill="#4273ED"/>
</svg>
