<svg width="62" height="50" viewBox="0 0 62 50" fill="none" xmlns="http://www.w3.org/2000/svg">
<path d="M18.1408 49.5118L17.3418 32.7488L61.4466 9.72656L61.7591 25.6814L61.5711 25.7857L18.1408 49.5118ZM18.0703 33.1683L18.7917 48.3458L61.0471 25.2596L60.7651 10.8808L18.0703 33.1683Z" fill="#4273ED"/>
<path fill-rule="evenodd" clip-rule="evenodd" d="M61.6738 9.34082L61.9967 25.8199L61.6842 25.9933L61.6828 25.994L17.9238 49.8997L17.0996 32.6081L61.6738 9.34082ZM17.5836 32.8892L18.3574 49.1237L61.4576 25.5779L61.459 25.5772L61.5211 25.5427L61.2189 10.112L17.5836 32.8892ZM60.9923 10.495L61.2846 25.3991L18.5747 48.7337L17.8281 33.0276L60.9923 10.495ZM18.312 33.3087L19.0084 47.9577L60.8091 25.1198L60.5374 11.2662L18.312 33.3087Z" fill="#4273ED"/>
<path d="M17.5379 33.27L0.498047 23.8966C15.3148 16.0211 30.1339 8.14555 44.953 0.27002C50.4614 3.41502 55.9698 6.56001 61.4782 9.70501L61.1304 10.3236L44.9412 1.08056L1.98795 23.9061L17.8763 32.6443L17.5379 33.27Z" fill="#4273ED"/>
<path fill-rule="evenodd" clip-rule="evenodd" d="M44.9562 0L61.7978 9.61563L61.2182 10.6465L44.9364 1.35062L2.48454 23.9097L18.1944 32.5497L17.6309 33.5915L0 23.893L0.387711 23.687C15.2045 15.8114 30.0236 7.9359 44.8426 0.0603684L44.9562 0ZM0.994559 23.9002L17.4433 32.9485L17.5567 32.7389L1.48982 23.9025L44.9445 0.810545L61.041 10.0007L61.157 9.79443L44.9482 0.540078C30.2962 8.32679 15.6442 16.1135 0.994559 23.9002Z" fill="#4273ED"/>
<path d="M18.0447 49.6771L1.1764 40.7469L0.501953 23.882L1.2046 23.8535L1.8626 40.3085L18.3737 49.049L18.0447 49.6771Z" fill="#4273ED"/>
<path fill-rule="evenodd" clip-rule="evenodd" d="M1.43008 23.6074L2.09208 40.1624L18.6917 48.9499L18.1431 49.997L0.947201 40.8934L0.257812 23.6549L1.43008 23.6074ZM0.746374 24.1095L1.40588 40.6009L17.9465 49.3576L18.056 49.1487L1.6334 40.4549L0.979402 24.1L0.746374 24.1095Z" fill="#4273ED"/>
<path d="M16.5093 46.6227L2.92163 39.6502L2.42578 26.2241L16.2203 33.9053L16.5093 46.6227ZM3.61253 39.207L15.7785 45.4496L15.5247 34.3319L3.17543 27.4565L3.61253 39.207Z" fill="#4273ED"/>
<path fill-rule="evenodd" clip-rule="evenodd" d="M2.17578 25.814L16.4524 33.7636L16.7536 47.0138L2.69224 39.7982L2.17578 25.814ZM2.6764 26.6342L3.15163 39.5021L16.2657 46.2316L15.9887 34.0469L2.6764 26.6342ZM2.92532 27.0463L15.7568 34.1902L16.0228 45.8407L3.38318 39.355L2.92532 27.0463ZM3.42616 27.8666L3.8425 39.0589L15.5348 45.0584L15.2931 34.4735L3.42616 27.8666Z" fill="#4273ED"/>
<path d="M15.7352 33.7933L3.38281 39.0249L3.65579 39.6804L16.0081 34.4488L15.7352 33.7933Z" fill="#4273ED"/>
<path fill-rule="evenodd" clip-rule="evenodd" d="M3.07422 38.8979L15.8599 33.4828L16.3149 34.5754L3.52918 39.9905L3.07422 38.8979ZM3.68954 39.1514L3.78053 39.37L15.6995 34.3219L15.6085 34.1034L3.68954 39.1514Z" fill="#4273ED"/>
</svg>
