<svg width="47" height="41" viewBox="0 0 47 41" fill="none" xmlns="http://www.w3.org/2000/svg">
<path d="M31.1163 10.2862C32.1339 9.26254 33.1373 8.25531 34.1408 7.25043C36.4062 4.97945 38.6763 2.71318 40.9346 0.435137C41.2354 0.131555 41.5503 -0.00729237 41.9804 -0.000232336C43.3058 0.0185944 44.6335 0.0068277 45.959 0.0068277C46.7579 0.0068277 46.9906 0.246869 46.9906 1.06113C46.9906 5.89961 46.9859 10.7381 47 15.5766C47.0023 16.0567 46.859 16.4097 46.5182 16.7485C39.7244 23.5403 32.9376 30.3391 26.1508 37.1356C25.0016 38.2864 23.8454 39.4348 22.7057 40.5926C22.4331 40.8703 22.1393 40.9998 21.7445 40.9998C14.8308 40.9927 7.9148 40.9951 1.0011 40.9927C0.2585 40.9927 0.00705 40.7409 0.00705 39.9972C0.0047 35.0952 0.0094 30.1932 0 25.2912C0 24.8958 0.1316 24.604 0.40655 24.3287C8.3707 16.3626 16.3301 8.3918 24.2849 0.413957C24.5739 0.124495 24.8818 -0.00493903 25.2907 -0.000232336C26.6161 0.0162411 27.9438 0.00447436 29.2692 0.0068277C30.08 0.0068277 30.3173 0.242162 30.3197 1.0423C30.3197 3.61921 30.3502 6.19848 30.3009 8.77304C30.2868 9.46728 30.5382 9.90265 31.1163 10.2862ZM22.7409 38.3758C22.8866 38.244 22.9454 38.1946 23.0018 38.1381C30.4113 30.718 37.8209 23.2979 45.221 15.866C45.3738 15.7131 45.4654 15.4307 45.4654 15.2071C45.4795 11.1758 45.4772 7.14688 45.4748 3.1156C45.4748 2.98146 45.4631 2.84732 45.4537 2.64493C45.2962 2.79084 45.1928 2.88026 45.0965 2.97675C37.7527 10.331 30.4137 17.6852 23.0629 25.0323C22.8161 25.2794 22.7315 25.5242 22.7339 25.8607C22.7433 29.8426 22.7409 33.8268 22.7409 37.8086C22.7409 37.9663 22.7409 38.1193 22.7409 38.3758ZM28.8039 2.6261C28.6535 2.7626 28.583 2.82378 28.5172 2.88732C21.1147 10.3004 13.7146 17.7134 6.3215 25.1335C6.17815 25.2771 6.0818 25.5383 6.07945 25.7477C6.0583 27.2327 6.0677 28.72 6.0677 30.2073C6.0677 31.3769 6.063 32.5465 6.07005 33.7162C6.07475 34.368 6.48835 34.9211 6.95835 34.9211C9.9264 34.9211 12.8944 34.9234 15.8625 34.9164C16.0011 34.9164 16.2291 34.8669 16.2667 34.7799C16.4335 34.3822 16.6568 33.9633 16.6615 33.5491C16.6967 30.831 16.6873 28.1105 16.6709 25.39C16.6685 24.9241 16.8189 24.5899 17.1456 24.2651C21.3051 20.1138 25.4552 15.9531 29.6076 11.7924C29.7369 11.663 29.8591 11.5288 30.0142 11.3664C29.7557 11.1193 29.5489 10.8981 29.3186 10.7098C28.9167 10.3827 28.764 9.98031 28.7969 9.46022C28.8321 8.89306 28.8063 8.32355 28.8063 7.75404C28.8039 6.08081 28.8039 4.40759 28.8039 2.6261ZM1.5557 25.8372C1.5557 30.4003 1.5557 34.9258 1.5557 39.4371C8.12865 39.4371 14.6687 39.4371 21.1993 39.4371C21.1993 34.8834 21.1993 30.3673 21.1993 25.8442C20.1888 25.8442 19.2065 25.8442 18.1937 25.8442C18.1937 26.0466 18.1937 26.2184 18.1937 26.3925C18.1937 28.5576 18.1349 30.7274 18.2172 32.8878C18.2618 34.0409 17.9564 35.0364 17.3594 35.9636C17.2137 36.1895 16.8706 36.4154 16.6145 36.4178C13.1271 36.4484 9.63735 36.4413 6.14995 36.4296C5.94785 36.4296 5.6447 36.3543 5.5601 36.2131C5.12535 35.4765 4.55665 34.7799 4.5543 33.8597C4.54725 31.3628 4.55195 28.8636 4.55195 26.3667C4.55195 26.1972 4.55195 26.0278 4.55195 25.8372C3.5344 25.8372 2.5615 25.8372 1.5557 25.8372ZM2.65315 24.1616C2.67665 24.2063 2.70015 24.251 2.726 24.2957C3.3511 24.2957 3.97855 24.3192 4.60365 24.2839C4.8269 24.2722 5.0995 24.1757 5.2546 24.0204C12.6383 16.645 20.0126 9.25783 27.3869 1.87068C27.4762 1.78125 27.5537 1.67535 27.6783 1.52709C27.025 1.52709 26.4563 1.54827 25.8899 1.52003C25.4975 1.49885 25.2249 1.62122 24.9405 1.90362C17.6414 9.23195 10.3329 16.5485 3.0221 23.8651C2.91165 23.9757 2.77535 24.0627 2.65315 24.1616ZM44.3445 1.66123C44.321 1.61652 44.2998 1.5718 44.2763 1.52474C43.6348 1.52474 42.9932 1.50356 42.3517 1.5365C42.1449 1.54827 41.8934 1.64946 41.7477 1.79772C34.3523 9.18723 26.9686 16.5838 19.5826 23.9827C19.5026 24.0627 19.4415 24.1592 19.3311 24.2957C19.9562 24.2957 20.5084 24.2698 21.0583 24.3051C21.486 24.3334 21.7845 24.1969 22.09 23.8886C29.3773 16.572 36.6764 9.26489 43.9732 1.9601C44.086 1.84714 44.2199 1.76007 44.3445 1.66123Z" fill="#4273ED"/>
</svg>
