<svg width="44" height="44" viewBox="0 0 44 44" fill="none" xmlns="http://www.w3.org/2000/svg">
<path d="M38.4276 33.8967L43.2984 30.8432C43.393 30.7837 43.4898 30.7264 43.58 30.6603C43.8506 30.4643 44.0002 30.1999 43.9958 29.9289C43.9914 29.6667 43.8418 29.4266 43.5778 29.2482C43.0938 28.9243 42.5834 28.6137 42.0884 28.314C41.8684 28.1819 41.6484 28.0475 41.4306 27.9131L38.3924 26.0361L39.1778 25.4985C39.279 25.428 39.367 25.3663 39.4594 25.309C39.8378 25.0733 40.2118 24.8332 40.5858 24.593C41.4592 24.0335 42.3634 23.454 43.2918 22.9407C43.723 22.7028 43.9716 22.3701 43.9716 22.0308C43.9716 21.6916 43.7274 21.3611 43.3028 21.1276C42.3744 20.6165 41.4702 20.0437 40.5968 19.4885C40.2184 19.2484 39.8422 19.0104 39.4638 18.7747C39.3802 18.7218 39.2966 18.6689 39.202 18.6051L38.41 18.0851L39.2042 17.5564C39.3032 17.4903 39.3934 17.4286 39.4858 17.3713L40.8476 16.5231C41.699 15.9944 42.5482 15.4635 43.3974 14.9325C43.7868 14.688 44.0002 14.395 44.0002 14.1086C44.0002 13.8222 43.7846 13.5291 43.3952 13.2846C37.2858 9.44903 31.1742 5.61566 25.0626 1.78009L22.6338 0.257761C22.5106 0.180653 22.3852 0.107951 22.262 0.0330463L22.2114 0H21.7912L17.7586 2.52694C12.1288 6.05628 6.49685 9.58342 0.864847 13.1062C0.455647 13.3639 0.174047 13.5776 0.000246875 13.8794V14.3333C0.185047 14.6483 0.477647 14.8708 0.856047 15.0999C1.77565 15.6573 2.68865 16.2301 3.59945 16.8007L4.51025 17.3713C4.59605 17.4242 4.67965 17.4837 4.77865 17.552L5.55745 18.0873L3.25185 19.5458C2.45545 20.0481 1.65905 20.5482 0.856047 21.0373C0.475447 21.2686 0.180647 21.4911 -0.00195312 21.8039V22.2578C0.182847 22.575 0.482047 22.7997 0.891247 23.0487C1.83945 23.6259 2.77885 24.2119 3.74245 24.8155L5.56625 25.9545L4.78305 26.4921C4.68405 26.5626 4.59605 26.6221 4.50585 26.6794L3.61705 27.2389C2.69965 27.8161 1.78225 28.3956 0.856047 28.9595C0.462247 29.1997 0.174047 29.4178 -0.00195312 29.724V30.1801C0.171847 30.4797 0.453447 30.6956 0.862647 30.9533C7.72445 35.2494 14.4432 39.4595 21.2126 43.729C21.789 44.0925 22.1982 44.0925 22.7768 43.729C27.9886 40.4398 33.2092 37.1682 38.4276 33.8967ZM3.39705 14.7585C3.32885 14.7166 3.26065 14.6703 3.17705 14.6109L2.38945 14.0777L9.44705 9.64951C13.4202 7.15562 17.3956 4.66173 21.3666 2.16343C21.6614 1.97617 22.0706 1.80653 22.6052 2.1436C27.3814 5.15081 32.162 8.15141 36.9448 11.152L40.5682 13.4256C40.6474 13.4741 40.7222 13.5269 40.8124 13.5886L41.5472 14.0909L40.8212 14.6042C40.7266 14.6725 40.643 14.7342 40.555 14.7893L35.9988 17.6291C31.5416 20.4072 27.0866 23.1853 22.6316 25.9678C22.46 26.0757 22.2488 26.1771 21.9958 26.1771C21.8176 26.1771 21.6174 26.1242 21.3952 25.9876C16.5156 22.9341 11.6338 19.8917 6.74985 16.8492L3.39705 14.7585ZM3.32885 22.6367C3.27165 22.6014 3.21665 22.564 3.14845 22.5155L2.47525 22.0485L3.15285 21.5462C3.23865 21.4801 3.31785 21.4206 3.40145 21.3677L4.36505 20.7663C5.08445 20.3191 5.80605 19.8696 6.51665 19.407C6.95005 19.125 7.34605 19.125 7.80145 19.4114C9.55925 20.5107 11.317 21.6079 13.077 22.705C15.7918 24.397 18.5044 26.0889 21.2126 27.7941C21.7934 28.1598 22.2026 28.1598 22.779 27.7963C25.3068 26.2057 27.839 24.6283 30.3712 23.0487C32.2984 21.8458 34.2278 20.6451 36.1528 19.4378C36.6082 19.1536 37.0108 19.1558 37.4662 19.4466C38.1724 19.8983 38.8874 20.3367 39.6024 20.7751L40.5198 21.3391C40.6078 21.392 40.6914 21.4514 40.7882 21.5175L41.5494 22.0308L40.7882 22.5486C40.6958 22.6125 40.6122 22.6697 40.5264 22.7226L22.636 33.879C22.493 33.9694 22.2708 34.106 21.9848 34.106C21.822 34.106 21.6394 34.0597 21.437 33.9341C16.6168 30.9181 11.7922 27.9109 6.96765 24.9037L3.32885 22.6367ZM22.0024 42.0965C21.7846 42.0965 21.569 42.0238 21.3358 41.8784C16.575 38.8822 11.8098 35.8905 7.04465 32.9009L3.48725 30.6669C3.39485 30.6097 3.30465 30.548 3.19905 30.4753L2.38945 29.9311L5.38805 28.0475C5.50905 27.9704 5.63225 27.8977 5.75545 27.8228C6.02165 27.6619 6.27465 27.5077 6.51225 27.3381C7.11285 26.9063 7.61225 27.2191 7.77725 27.3205C11.1894 29.4574 14.6082 31.5878 18.027 33.7182L20.7088 35.3882C20.9398 35.5269 21.1686 35.6679 21.3908 35.82C21.8132 36.1086 22.174 36.0953 22.6756 35.7803C24.9944 34.3219 27.3198 32.8744 29.6452 31.427L32.8066 29.4574C33.9506 28.7436 35.0968 28.0276 36.2496 27.3249C36.5136 27.164 36.958 27.0869 37.2616 27.2676C38.1636 27.8051 39.0568 28.3581 39.95 28.9133L40.929 29.5015L41.7232 29.9069L30.3712 37.0294C27.7972 38.6443 25.221 40.2592 22.6536 41.885C22.4292 42.026 22.2158 42.0965 22.0024 42.0965Z" fill="#4273ED"/>
</svg>
