<svg width="53" height="49" viewBox="0 0 53 49" fill="none" xmlns="http://www.w3.org/2000/svg">
<path d="M24.3658 48.2084C29.5459 48.1903 34.5821 46.5032 38.7284 43.3976C42.8747 40.2919 45.9094 35.9329 47.3832 30.9667L45.613 30.4501C44.5648 34.0111 42.632 37.2482 39.9939 39.8599L38.0595 37.9254L36.7557 39.2292L38.6318 41.1053V41.1057C34.8842 44.2744 30.1915 46.1105 25.2883 46.3258V43.5975H23.4439V46.3406C18.2163 46.1265 13.2355 44.0602 9.39114 40.5108L11.3244 38.5775L10.0206 37.2737L8.08736 39.207C4.5378 35.3626 2.47161 30.3818 2.25756 25.1542H5.00057V23.3098H2.25756C2.47163 18.0823 4.5379 13.1014 8.08736 9.25706L10.0206 11.1903L11.3244 9.88656L9.39114 7.95327C13.2355 4.40371 18.2163 2.33753 23.4439 2.12348V4.86648H25.2883V2.12222C30.5113 2.35071 35.4844 4.42226 39.3252 7.96898L37.4077 9.88656L38.7115 11.1903L40.6283 9.2735L40.6287 9.27391C43.5373 12.411 45.4693 16.3264 46.1898 20.5433H42.1952L47.1136 27.9207L52.0316 20.5433H48.0531C47.1074 14.4719 43.8662 8.99568 38.9989 5.24483C34.132 1.49397 28.0099 -0.244971 21.8983 0.386951C15.786 1.01929 10.1504 3.97434 6.15395 8.64199C2.15775 13.3096 0.105899 19.3339 0.422492 25.4708C0.739486 31.6074 3.4002 37.3883 7.85622 41.6198C12.3118 45.851 18.2223 48.21 24.3667 48.2095L24.3658 48.2084Z" fill="white"/>
<path d="M11.4551 24.2316C11.4551 27.6556 12.8152 30.9395 15.2364 33.3607C17.6575 35.7818 20.9415 37.142 24.3654 37.142C27.7894 37.142 31.0733 35.7818 33.4945 33.3607C35.9156 30.9395 37.2758 27.6556 37.2758 24.2316C37.2758 20.8077 35.9156 17.5237 33.4945 15.1026C31.0733 12.6815 27.7894 11.3213 24.3654 11.3213C20.9427 11.325 17.6612 12.6864 15.2405 15.1067C12.8202 17.5274 11.4588 20.8089 11.4551 24.2316ZM28.7244 18.7826V22.0522L25.4549 24.2316L24.3651 28.5909L27.6346 29.6807L28.7244 31.8606L27.7578 34.7605C24.3915 35.8502 20.7065 35.2623 17.8461 33.1792C14.9857 31.0965 13.2953 27.7701 13.299 24.2318H16.7361L18.9156 20.9622L22.1851 18.7823L23.2749 16.6024L20.5351 13.8627L20.5355 13.8631C22.487 13.1319 24.6062 12.9718 26.6458 13.4012C28.6849 13.8306 30.5601 14.8318 32.0507 16.2875L28.7244 18.7826Z" fill="white"/>
</svg>
