<svg width="40" height="40" viewBox="0 0 40 40" fill="none" xmlns="http://www.w3.org/2000/svg">
<path d="M20 0C8.96976 0 0 8.96976 0 20C0 31.0249 8.96976 40 20 40C31.0249 40 40 31.0249 40 20C40 8.96976 31.0249 0 20 0ZM20 35.9648C11.1805 35.9648 4.03521 28.8149 4.03521 20C4.03521 11.1805 11.1801 4.03521 20 4.03521C28.8149 4.03521 35.9648 11.1801 35.9648 20C35.9648 28.8149 28.8149 35.9648 20 35.9648Z" fill="white"/>
<path d="M19.7295 17.15C18.9946 17.2149 18.3344 17.5651 17.8696 18.0901C16.9897 15.43 15.6447 11.2702 15.5996 11.1201C15.6897 11.2553 18.1545 14.8501 19.7295 17.15Z" fill="white"/>
<path d="M21.8637 20.0001C21.8637 21.0302 21.0283 21.8656 19.9981 21.8656C18.9679 21.8656 18.1328 21.0302 18.1328 20.0001C18.1328 18.9699 18.9679 18.1348 19.9981 18.1348C21.0283 18.1348 21.8637 18.9699 21.8637 20.0001Z" fill="white"/>
<path d="M19.5 8.50586H20.5V11.0058H19.5V8.50586Z" fill="white"/>
<path d="M13.2853 13.9934L11.5176 12.2256L12.2246 11.5186L13.9924 13.2863L13.2853 13.9934Z" fill="white"/>
<path d="M8.50586 19.5H11.0058V20.5H8.50586V19.5Z" fill="white"/>
<path d="M13.9924 26.7139L12.2246 28.4817L11.5176 27.7746L13.2853 26.0068L13.9924 26.7139Z" fill="white"/>
<path d="M26.7129 26.0059L28.4807 27.7736L27.7736 28.4807L26.0059 26.7129L26.7129 26.0059Z" fill="white"/>
<path d="M28.9941 19.5H31.4941V20.5H28.9941V19.5Z" fill="white"/>
<path d="M26.0059 13.2863L27.7736 11.5186L28.4807 12.2256L26.7129 13.9934L26.0059 13.2863Z" fill="white"/>
</svg>
