<svg width="45" height="46" viewBox="0 0 45 46" fill="none" xmlns="http://www.w3.org/2000/svg">
<path d="M22.352 0.591797C10.0233 0.591797 0 10.6151 0 22.9438C0 35.2726 10.0233 45.2959 22.352 45.2959C34.6808 45.2959 44.7041 35.2726 44.7041 22.9438C44.7041 10.6151 34.6808 0.591797 22.352 0.591797ZM39.8146 16.7619C40.1988 16.6571 40.5829 16.8667 40.6877 17.2159C40.8274 17.67 40.9671 18.124 41.0719 18.6129C41.1418 18.9971 40.9322 19.3813 40.548 19.4511C40.1639 19.521 39.7797 19.3114 39.7098 18.9273C39.6051 18.5082 39.5003 18.0541 39.3606 17.635C39.2209 17.2508 39.4304 16.8666 39.8146 16.7618L39.8146 16.7619ZM33.2836 7.99591C33.5281 7.68159 33.9472 7.64666 34.2615 7.89114C34.6457 8.20546 34.995 8.51979 35.3442 8.83407C35.6236 9.11347 35.6236 9.53257 35.3442 9.81197C35.0997 10.0914 34.6806 10.0914 34.4012 9.8469C34.0869 9.53257 33.7377 9.25317 33.3884 8.97373C33.109 8.72926 33.074 8.31016 33.2836 7.99583L33.2836 7.99591ZM28.3941 5.44634C28.5338 5.09709 28.9529 4.92247 29.3022 5.06217C29.7562 5.23679 30.2102 5.41142 30.6293 5.62097C30.9786 5.79559 31.1183 6.21469 30.9786 6.5639C30.8039 6.91315 30.3848 7.05285 30.0356 6.91315C29.6515 6.73853 29.2324 6.52898 28.8133 6.38928C28.464 6.21465 28.2545 5.83048 28.3942 5.44634H28.3941ZM23.7142 3.76994C24.2031 3.80486 24.6571 3.87471 25.1461 3.90964C25.5303 3.94456 25.8097 4.25889 25.8097 4.64306C25.7748 5.02724 25.4605 5.30664 25.0763 5.30664H24.9715C24.5175 5.23679 24.0983 5.20187 23.6444 5.16694C23.2602 5.13202 22.9808 4.81769 22.9808 4.43351C22.9808 4.04934 23.33 3.76994 23.7142 3.76994H23.7142ZM18.0214 4.22396C18.4754 4.11919 18.9644 4.01441 19.4184 3.94456C19.8026 3.87471 20.1518 4.15411 20.2217 4.53829C20.2915 4.92247 20.0121 5.27172 19.6279 5.34153C19.1739 5.41138 18.7548 5.48123 18.3357 5.586C18.3007 5.586 18.2309 5.62093 18.161 5.62093C17.7769 5.62093 17.4625 5.3066 17.4625 4.92243C17.4625 4.6081 17.6721 4.3287 18.0213 4.22392L18.0214 4.22396ZM12.7128 6.31947C13.1319 6.07499 13.551 5.86544 13.9701 5.65589C14.3194 5.48127 14.7385 5.62097 14.913 5.97022C15.0876 6.31947 14.948 6.73857 14.5987 6.91315C14.2145 7.08778 13.7955 7.33225 13.4113 7.54181C13.062 7.71643 12.6429 7.57673 12.4683 7.2624C12.2937 6.91315 12.3985 6.52898 12.7128 6.31947ZM8.2424 9.91671C8.55672 9.56746 8.90597 9.21821 9.25526 8.90384C9.53466 8.65937 9.98869 8.69429 10.2332 8.97369C10.4776 9.25309 10.4427 9.67219 10.1982 9.91663L9.2553 10.8596C8.9759 11.139 8.5568 11.139 8.2774 10.8596C7.998 10.6151 7.998 10.196 8.24248 9.91663L8.2424 9.91671ZM3.35289 20.1148C3.42274 19.6259 3.49259 19.1719 3.63229 18.7178C3.73706 18.3337 4.12124 18.1241 4.47049 18.2289C4.81974 18.3337 5.06422 18.6829 4.99436 19.0321C4.88959 19.4512 4.81974 19.9053 4.74989 20.3593C4.71496 20.7085 4.40064 20.953 4.05139 20.953H3.94661C3.56244 20.8831 3.28304 20.5339 3.35289 20.1148V20.1148ZM4.05139 26.4363C3.70214 26.4363 3.38781 26.1918 3.35289 25.8426C3.28304 25.3886 3.21319 24.8996 3.17826 24.4106C3.14334 24.0264 3.42274 23.6772 3.80691 23.6423C4.19109 23.6073 4.54034 23.8867 4.57526 24.2709C4.61019 24.7249 4.64511 25.1441 4.71496 25.5981C4.78481 25.9822 4.50541 26.3315 4.12124 26.4013H4.05139V26.4363ZM6.00719 31.6402C5.65794 31.8148 5.23884 31.6751 5.06425 31.3259C4.8547 30.9068 4.68008 30.4527 4.50545 29.9987C4.36575 29.6495 4.54038 29.2304 4.88963 29.0907C5.23888 28.951 5.65798 29.1256 5.79768 29.4748C5.97231 29.8939 6.14693 30.2781 6.32156 30.6972C6.46126 31.0464 6.32156 31.4655 6.00723 31.6401L6.00719 31.6402ZM6.91524 14.0731C6.70569 14.4572 6.49614 14.8414 6.28659 15.2605C6.11197 15.6098 5.69287 15.7495 5.34365 15.5749C4.99444 15.4002 4.8547 14.9811 5.02933 14.6319C5.23888 14.2128 5.44843 13.7587 5.69291 13.3746C5.90246 13.0254 6.32156 12.9206 6.63584 13.1301C6.98509 13.3048 7.08987 13.7588 6.91524 14.0731ZM9.29015 36.0755C9.01075 36.3549 8.55672 36.3199 8.31225 36.0405C7.99792 35.6913 7.68359 35.342 7.36931 34.9579C7.12483 34.6785 7.15976 34.2245 7.43916 33.98C7.71856 33.7355 8.17259 33.7705 8.41706 34.0499L8.45199 34.0848C8.73139 34.434 9.01079 34.7833 9.32515 35.0976C9.56963 35.377 9.56963 35.7961 9.29023 36.0755L9.29015 36.0755ZM9.32507 25.9468C9.15045 25.2483 8.62657 24.7245 8.10273 24.2005L7.92811 23.991H9.77918V26.785H9.32515C9.395 26.5056 9.395 26.1913 9.32515 25.9468H9.32507ZM13.7256 39.358C13.5161 39.7073 13.097 39.812 12.7827 39.6025C12.3636 39.358 11.9445 39.1135 11.5604 38.8341C11.246 38.6246 11.1413 38.1706 11.3857 37.8562C11.6302 37.5419 12.0493 37.4371 12.3636 37.6816C12.7129 37.9261 13.0971 38.1706 13.4812 38.3801C13.7956 38.5547 13.9003 39.0088 13.7257 39.358H13.7256ZM18.9295 41.1741C18.8597 41.4884 18.5803 41.7329 18.231 41.7329H18.0913C17.6373 41.6282 17.1484 41.4884 16.6943 41.3488C16.3101 41.244 16.1006 40.8249 16.2054 40.4756C16.3101 40.1263 16.7292 39.8819 17.0785 39.9866C17.4976 40.1263 17.9517 40.2311 18.3708 40.3359C18.7899 40.4057 18.9994 40.7899 18.9296 41.1741L18.9295 41.1741ZM23.819 42.1171C23.3301 42.152 22.8761 42.1869 22.387 42.1869C22.0029 42.1869 21.6885 41.8726 21.6885 41.4884C21.6885 41.1042 22.0029 40.7899 22.387 40.7899C22.8411 40.7899 23.2951 40.7899 23.7142 40.755C24.0984 40.7201 24.4476 40.9995 24.4826 41.3836C24.5175 41.7678 24.2032 42.0821 23.819 42.1171H23.819ZM29.407 40.8248C28.953 40.9994 28.499 41.174 28.045 41.3137C27.9751 41.3487 27.9053 41.3487 27.8354 41.3487C27.4513 41.3487 27.1369 41.0343 27.1369 40.6502C27.1369 40.3358 27.3465 40.0914 27.6259 39.9866C28.045 39.8469 28.4641 39.7072 28.8832 39.5326C29.2324 39.3929 29.6515 39.5675 29.7912 39.9167C29.9309 40.266 29.7563 40.6851 29.4071 40.8248H29.407ZM34.3315 37.9609C33.9473 38.2753 33.5631 38.5547 33.1789 38.7991C32.8646 39.0087 32.4106 38.9388 32.201 38.6245C31.9915 38.3102 32.0613 37.8562 32.3757 37.6466C32.7249 37.4021 33.1091 37.1227 33.4583 36.8434C33.7726 36.5989 34.1917 36.6688 34.4362 36.9482C34.6807 37.2625 34.6457 37.7165 34.3314 37.961L34.3315 37.9609ZM36.0079 29.5087C35.8682 29.7881 35.2396 29.9976 34.6808 30.2072C33.9823 30.4517 33.2488 30.6961 32.7948 31.2549C32.3408 31.8137 32.2709 32.5821 32.1661 33.3504C32.0963 33.9092 32.0264 34.5728 31.782 34.7824C31.5375 34.992 30.8739 34.8872 30.3151 34.8173C29.5468 34.7475 28.7784 34.6427 28.1149 34.957C27.4513 35.2714 27.0671 35.9349 26.6829 36.5636C26.3686 37.0525 26.0193 37.6462 25.705 37.7161C25.3907 37.7861 24.8318 37.4367 24.3779 37.1224C23.7492 36.7033 23.0507 36.2842 22.3173 36.2842C21.5839 36.2842 20.9203 36.7033 20.2568 37.1224C19.8028 37.4018 19.209 37.786 18.9296 37.7161C18.6502 37.6463 18.266 37.0875 17.9517 36.5636C17.5675 35.9349 17.1485 35.2713 16.4849 34.957C16.1356 34.7824 15.7514 34.7126 15.3673 34.7475C15.018 34.7475 14.6688 34.7824 14.3195 34.8173C13.7607 34.8872 13.0972 34.957 12.8527 34.7824C12.6081 34.6078 12.5383 33.9092 12.4685 33.3504C12.3986 32.5821 12.2939 31.8137 11.8398 31.2549C11.3858 30.6961 10.6524 30.4517 9.95388 30.2072C9.39508 29.9976 8.76643 29.7881 8.62673 29.5087C8.48703 29.2293 8.69658 28.6705 8.87121 28.1815H9.77926V28.8102C9.77926 29.1943 10.0936 29.5087 10.4778 29.5087H13.7258C14.3545 30.8009 15.6816 31.6391 17.1485 31.674L24.0288 31.9884C24.0986 31.9884 24.1335 31.9884 24.2034 32.0233H28.8834C29.8962 32.0233 30.7344 31.1851 30.7344 30.1722V29.6134C30.7344 29.1943 30.5947 28.7752 30.3153 28.4608C30.5947 28.1465 30.7344 27.7274 30.7344 27.3083V26.7844C30.7344 26.3653 30.5947 25.9462 30.3153 25.6318C30.5947 25.3175 30.7344 24.8984 30.7344 24.4793V23.9205C30.7344 23.5014 30.5947 23.0823 30.3153 22.7679C30.5947 22.4536 30.7344 22.0345 30.7344 21.6153V21.0565C30.7344 20.0437 29.8962 19.2055 28.8834 19.2055H22.7365L23.5747 18.5768C23.8891 18.3323 24.0986 18.018 24.2383 17.6339V17.5291L24.3431 13.9667C24.4129 12.8142 23.5399 11.8014 22.3873 11.7315C21.2347 11.6617 20.2219 12.5348 20.1521 13.6873L20.0473 16.0972C18.6153 17.2148 16.4501 18.8214 15.7166 19.1357C14.634 19.5897 13.7958 20.5327 13.4464 21.6503H10.4778C10.0936 21.6503 9.77926 21.9646 9.77926 22.3488V22.5932H7.3345C7.54405 22.2789 7.82345 21.9646 8.10286 21.7201C8.62673 21.1962 9.18549 20.6723 9.32519 19.9738C9.46489 19.2753 9.22042 18.507 8.97594 17.8085C8.80132 17.2846 8.55684 16.6559 8.69654 16.3765C8.83624 16.0971 9.46489 15.8875 10.0237 15.678C10.7222 15.4335 11.4557 15.189 11.9096 14.6302C12.3636 14.0714 12.4335 13.3031 12.5383 12.5347C12.6081 11.9759 12.678 11.3124 12.9225 11.1028C13.167 10.8931 13.8305 10.998 14.3893 11.0678C15.1577 11.1377 15.926 11.2425 16.5896 10.9281C17.2531 10.6138 17.6373 9.95024 18.0215 9.32159C18.3359 8.83264 18.6851 8.27384 18.9994 8.16902C19.3138 8.0642 19.8726 8.48335 20.3266 8.76275C20.9902 9.18185 21.6189 9.60095 22.3871 9.60095C23.1206 9.60095 23.7841 9.18185 24.4477 8.76275C24.9017 8.48335 25.4954 8.09917 25.7748 8.16902C26.0542 8.23887 26.4384 8.79767 26.7527 9.32159C27.1369 9.95024 27.556 10.6139 28.2196 10.9281C28.8832 11.2424 29.6515 11.1377 30.4198 11.0678C30.9786 10.998 31.6422 10.9281 31.8867 11.1028C32.1312 11.2774 32.201 11.9759 32.2708 12.5347C32.3407 13.3031 32.4455 14.0714 32.8995 14.6302C33.3535 15.189 34.0869 15.4335 34.7854 15.678C35.3442 15.8526 35.9729 16.0971 36.1126 16.3765C36.2523 16.6559 36.0078 17.2845 35.8332 17.8085C35.5887 18.507 35.3093 19.2753 35.4839 19.9738C35.6586 20.6723 36.1824 21.1961 36.7063 21.7201C37.1254 22.1392 37.6143 22.5932 37.6143 22.9424C37.6143 23.2567 37.1254 23.7456 36.7063 24.1647C36.1824 24.6886 35.6236 25.2474 35.4839 25.911C35.3442 26.5746 35.5887 27.3778 35.8332 28.0763C35.903 28.6002 36.1475 29.2638 36.0078 29.5083L36.0079 29.5087ZM19.9775 20.1488C20.0823 20.4282 20.3267 20.6377 20.6411 20.6377H22.4222C22.3873 20.7774 22.3524 20.952 22.3524 21.0917V21.6505C22.3524 22.0696 22.4921 22.4887 22.7715 22.8031C22.4921 23.1174 22.3524 23.5365 22.3524 23.9557V24.5145C22.3524 24.9336 22.4921 25.3527 22.7715 25.667C22.4921 25.9464 22.3524 26.3655 22.3524 26.7846V27.3434C22.3524 27.7625 22.4921 28.1816 22.7715 28.496C22.4921 28.8103 22.3524 29.2294 22.3524 29.6486V30.2074C22.3524 30.3122 22.3524 30.4519 22.3873 30.5566L17.1834 30.2772C15.7864 30.2772 14.6688 29.0549 14.6688 27.5531V23.0128C14.6688 21.9302 15.2975 20.9173 16.2754 20.4982C17.4977 19.9743 20.8156 17.3549 21.1998 17.0756C21.3745 16.9359 21.4443 16.7612 21.4792 16.5517L21.584 13.8275C21.6189 13.4433 21.8983 13.1639 22.2825 13.1639C22.4921 13.1639 22.6667 13.2338 22.8064 13.3735C22.9461 13.5132 23.0159 13.7227 23.0159 13.8974L22.9112 17.32C22.8762 17.3899 22.8064 17.4248 22.7715 17.4947L20.2569 19.3806C19.9775 19.5552 19.8727 19.8696 19.9775 20.149L19.9775 20.1488ZM24.2035 23.4666H28.8834C29.1279 23.4666 29.3375 23.6761 29.3375 23.9206V24.4794C29.3375 24.7239 29.1279 24.9335 28.8834 24.9335H24.2035C23.959 24.9335 23.7494 24.7239 23.7494 24.4794V23.9206C23.7494 23.6761 23.959 23.4666 24.2035 23.4666ZM23.7494 21.6155V21.0567C23.7494 20.8123 23.9241 20.6376 24.1685 20.6027H28.8834C29.1279 20.6027 29.3374 20.8123 29.3374 21.0567V21.6155C29.3374 21.86 29.1279 22.0696 28.8834 22.0696H24.2034C23.959 22.0696 23.7494 21.8949 23.7494 21.6155H23.7494ZM24.2035 26.3304H28.8834C29.1279 26.3304 29.3375 26.5399 29.3375 26.7844V27.3432C29.3375 27.5877 29.1279 27.7972 28.8834 27.7972H24.2035C23.959 27.7972 23.7494 27.5877 23.7494 27.3432V26.7844C23.7494 26.5399 23.959 26.3304 24.2035 26.3304ZM24.2035 29.1942H28.8834C29.1279 29.1942 29.3375 29.4038 29.3375 29.6483V30.2071C29.3375 30.4515 29.1279 30.6611 28.8834 30.6611H24.0987C23.8891 30.6262 23.7494 30.4166 23.7494 30.2071V29.6483C23.7494 29.3689 23.959 29.1593 24.2034 29.1942H24.2035ZM38.2437 33.7694C37.9643 34.1535 37.6849 34.5726 37.4055 34.9219C37.1611 35.2363 36.707 35.2712 36.4276 35.0267C36.1133 34.7822 36.0784 34.3282 36.3229 34.0488C36.6023 33.6996 36.8817 33.3503 37.1261 32.9662C37.3357 32.6519 37.7897 32.582 38.104 32.7915C38.3485 33.036 38.4533 33.4551 38.2437 33.7695L38.2437 33.7694ZM38.6978 14.2113C38.3485 14.4209 37.9294 14.2812 37.7548 13.9669C37.5453 13.5827 37.3008 13.1985 37.0563 12.8493C36.8468 12.5349 36.9516 12.0809 37.2659 11.8714C37.5802 11.6618 37.9644 11.7666 38.2088 12.046C38.4882 12.4302 38.7327 12.8492 38.9772 13.2683C39.1518 13.5826 39.047 14.0017 38.6978 14.2113V14.2113ZM40.7234 28.6005C40.5837 29.0545 40.4091 29.5085 40.2345 29.9625C40.0948 30.3118 39.6757 30.4864 39.3264 30.3118C39.0121 30.1721 38.8375 29.7879 38.9422 29.4386C39.1169 29.0195 39.2566 28.6004 39.3963 28.1813C39.501 27.7971 39.8852 27.5876 40.2694 27.6923C40.6537 27.7971 40.8632 28.1813 40.7584 28.5655C40.7235 28.5655 40.7235 28.5655 40.7235 28.6004L40.7234 28.6005ZM40.8282 25.0381H40.7584C40.3742 25.0032 40.0948 24.6889 40.0948 24.3047C40.1297 23.8507 40.1297 23.4315 40.1297 22.9775V22.9077C40.1297 22.5235 40.444 22.2092 40.8282 22.2092C41.2124 22.2092 41.5267 22.5235 41.5267 22.9077V22.9426C41.5267 23.4316 41.4918 23.9205 41.4569 24.3746C41.4918 24.7587 41.1775 25.0381 40.8282 25.0381V25.0381Z" fill="white"/>
<path d="M17.1475 22.2451H17.1126C16.7284 22.2451 16.4141 22.5594 16.4141 22.9436C16.4141 23.3278 16.7284 23.6421 17.1126 23.6421H17.1475C17.5317 23.6421 17.8111 23.8866 17.8111 24.0612V26.6806C17.8111 26.8901 17.5317 27.0997 17.1475 27.0997C16.7633 27.0997 16.449 27.414 16.449 27.7982C16.449 28.1823 16.7633 28.4967 17.1475 28.4967C18.2651 28.4967 19.208 27.6585 19.208 26.6806V24.0612C19.208 23.0484 18.3 22.2451 17.1475 22.2451Z" fill="white"/>
</svg>
