<svg width="47" height="54" viewBox="0 0 47 54" fill="none" xmlns="http://www.w3.org/2000/svg">
<path d="M26.6338 25.658C27.1352 25.1566 27.0796 24.3206 26.5782 23.8748C26.0768 23.3734 25.2409 23.429 24.795 23.9304L22.3434 26.5491L21.3406 25.4904C20.8393 24.989 20.0592 24.933 19.5575 25.4348C19.0561 25.9362 19.0001 26.7162 19.5019 27.218L21.4522 29.2794C21.6749 29.5581 22.0096 29.6696 22.3994 29.6696C22.7336 29.6696 23.0679 29.5025 23.3465 29.2794L26.6338 25.658Z" fill="white"/>
<path d="M20.0598 39.8101C20.0598 40.3675 20.5056 40.7573 21.007 40.7573H25.1858C25.7432 40.7573 26.133 40.3115 26.133 39.8101V37.6371C27.0246 37.3585 27.9162 37.0242 28.6962 36.5784L30.2563 38.1385C30.6465 38.5287 31.259 38.5287 31.5936 38.1385L34.5467 35.1854C34.9369 34.7952 34.9369 34.1827 34.5467 33.8481L32.9866 32.288C33.4324 31.508 33.8222 30.6164 34.0453 29.7248H36.2183C36.7757 29.7248 37.1655 29.279 37.1655 28.7776V24.5988C37.1655 24.0414 36.7197 23.6516 36.2183 23.6516H34.0453C33.7667 22.7601 33.4324 21.8685 32.9866 21.0884L34.5467 19.5283C34.9369 19.1381 34.9369 18.5256 34.5467 18.191L31.5936 15.2379C31.2034 14.8477 30.5909 14.8477 30.2563 15.2379L28.6962 16.798C27.9162 16.3522 27.0246 15.9624 26.133 15.7393V13.5663C26.133 13.009 25.6872 12.6191 25.1858 12.6191H21.007C20.4497 12.6191 20.0598 13.0649 20.0598 13.5663V15.7393C19.1683 16.018 18.2767 16.3522 17.4966 16.798L15.9365 15.2379C15.5463 14.8477 14.9338 14.8477 14.5992 15.2379L11.6461 18.191C11.2559 18.5812 11.2559 19.1937 11.6461 19.5283L13.2062 21.0884C12.7604 21.8684 12.3706 22.76 12.1475 23.6516H9.9745C9.41716 23.6516 9.02734 24.0974 9.02734 24.5988V28.7776C9.02734 29.335 9.47314 29.7248 9.9745 29.7248H12.1475C12.4262 30.6164 12.7604 31.508 13.2062 32.288L11.6461 33.8481C11.2559 34.2383 11.2559 34.8508 11.6461 35.1854L14.5992 38.1385C14.9894 38.5287 15.6019 38.5287 15.9365 38.1385L17.4966 36.5784C18.2766 37.0242 19.1683 37.414 20.0598 37.6371V39.8101ZM16.1593 26.605C16.1593 22.7603 19.2794 19.6959 23.0684 19.6959C26.913 19.6959 29.9775 22.816 29.9775 26.605C29.9775 30.3936 26.9129 33.5141 23.0684 33.5141C19.2798 33.5141 16.1593 30.4495 16.1593 26.605Z" fill="white"/>
<path d="M2.72978 26.605C2.72978 15.4057 11.8675 6.26798 23.0668 6.26798H23.1224L22.1197 7.27071C21.5623 7.82805 21.5623 8.66366 22.1197 9.22103C22.3983 9.4997 22.7326 9.61125 23.1224 9.61125C23.4566 9.61125 23.8468 9.4997 24.1251 9.22103L27.5239 5.82224C27.8026 5.54357 27.9141 5.20932 27.9141 4.81952C27.9141 4.4293 27.747 4.09507 27.5239 3.8168L24.1251 0.418004C23.5678 -0.139335 22.7322 -0.139335 22.1748 0.418004C21.6174 0.975342 21.6174 1.81095 22.1748 2.36833L23.1775 3.37105H23.1219C10.3635 3.53779 0 13.9017 0 26.6054C0 33.0688 2.56322 39.0305 7.24343 43.4322C7.5221 43.6549 7.85634 43.8224 8.19058 43.8224C8.5808 43.8224 8.91503 43.6553 9.1933 43.3766C9.69468 42.8193 9.69468 41.9281 9.13773 41.4263C5.0145 37.5262 2.73037 32.2886 2.73037 26.6054L2.72978 26.605Z" fill="white"/>
<path d="M46.137 26.6053C46.137 20.142 43.5738 14.1802 38.8936 9.77853C38.3362 9.27716 37.445 9.27716 36.9432 9.83411C36.4419 10.4474 36.4419 11.283 36.9992 11.8404C41.1224 15.685 43.4066 20.9781 43.4066 26.6056C43.4066 37.8049 34.2688 46.9426 23.0695 46.9426H23.014L24.0167 45.9399C24.574 45.3826 24.574 44.547 24.0167 43.9896C23.4593 43.4322 22.6237 43.4322 22.0664 43.9896L18.6676 47.3884C18.3889 47.667 18.2773 48.0013 18.2773 48.3911C18.2773 48.7813 18.4445 49.1156 18.6676 49.3938L22.0664 52.7926C22.345 53.0713 22.6793 53.1828 23.0691 53.1828C23.4033 53.1828 23.7935 53.0713 24.0718 52.7926C24.6291 52.2353 24.6291 51.3997 24.0718 50.8423L23.0691 49.8396H23.1247C35.7726 49.6728 46.1371 39.3089 46.1371 26.6052L46.137 26.6053Z" fill="white"/>
</svg>
