<svg width="57" height="42" viewBox="0 0 57 42" fill="none" xmlns="http://www.w3.org/2000/svg">
<path d="M9.98757 28.1222C8.78792 27.1369 7.05408 26.2586 5.73424 27.0282L3.58203 28.2772C3.88687 28.3602 4.50965 28.5821 5.1163 28.9319C8.79273 31.1378 11.542 36.3607 10.6304 40.3716L12.7826 39.1269C13.5923 38.6491 14.0404 37.6079 14.0404 36.1964C14.0409 33.3 12.2167 29.9533 9.98757 28.1226V28.1222Z" fill="#4273ED"/>
<path d="M5.22211 33.1826C5.06926 33.0057 4.91072 32.8375 4.74957 32.6825C4.20671 32.1409 3.14195 31.3147 2.37945 31.3147C1.69204 31.3147 2.01827 33.6683 2.39736 34.778C2.40216 34.7916 2.40828 34.8055 2.41308 34.8191L5.22437 33.1857C5.2235 33.1844 5.22306 33.1836 5.22219 33.1827L5.22211 33.1826Z" fill="#4273ED"/>
<path d="M4.49531 29.9963C2.0239 28.5694 0.0218439 29.501 4.22575e-05 32.5512C-0.0113125 35.7717 2.26707 39.7175 5.07926 41.3443C7.62323 42.8034 9.59029 41.7749 9.59029 38.7833C9.58985 35.8507 7.58924 31.8664 4.49542 29.9963H4.49531ZM5.45874 40.6849C2.84445 39.1746 0.751605 35.4746 0.751605 32.5464C0.751605 30.2466 1.99586 29.4312 4.12582 30.6427C6.64396 32.0996 8.83777 35.853 8.83777 38.7833C8.83777 41.1823 7.47388 41.8588 5.45874 40.6849Z" fill="#4273ED"/>
<path d="M51.6211 0.660169C50.3663 -0.0639352 49.2203 -0.197573 48.3976 0.285014L46.252 1.53139C46.8634 1.69954 47.2866 1.9 47.7831 2.18606C51.5608 4.36667 54.1721 9.96509 53.3295 13.4547C53.3265 13.4695 53.3247 13.4857 53.3212 13.5006L53.3239 13.501C53.3217 13.511 53.3177 13.5202 53.3156 13.5307C53.3081 13.5621 53.3055 13.5975 53.2977 13.6285L55.4403 12.3838C56.2548 11.9113 56.7028 10.8727 56.7028 9.45814V9.4564C56.7133 6.23032 54.4336 2.28445 51.6211 0.660623L51.6211 0.660169Z" fill="#4273ED"/>
<path d="M47.1613 3.25186C47.1604 3.25142 47.1595 3.25098 47.1582 3.25055C46.1738 2.68498 44.8986 2.32118 43.929 2.88151C43.9277 2.88238 43.9264 2.88194 43.9251 2.88282C43.2215 3.3344 42.8004 4.14239 42.6904 5.23728L43.6281 4.64944C44.5133 4.1127 45.6873 4.20223 46.8551 4.88615C47.5997 5.31284 48.3713 5.98278 49.1195 7.01086C50.2454 8.56347 50.8149 10.4973 50.8088 11.7175V11.7189V11.7202C50.8088 12.7225 50.5358 13.547 50.0279 14.1134C49.8584 14.3021 49.6628 14.4624 49.4427 14.5908L48.7168 15.0489C50.5004 15.6647 51.7983 14.9091 52.1504 13.0827C52.6382 10.893 51.4822 7.97735 50.1279 6.07402C49.1588 4.7127 48.1172 3.80307 47.1612 3.25188L47.1613 3.25186Z" fill="#4273ED"/>
<path d="M49.5766 11.7152C49.5876 9.63371 48.0595 6.99494 46.2383 5.95114C45.4675 5.49956 44.753 5.40698 44.2744 5.69784L10.4707 26.9326C12.7469 28.6573 14.6511 31.7978 15.1428 34.6855L48.8034 13.5357C49.3087 13.24 49.5764 12.5976 49.5764 11.7145L49.5766 11.7152Z" fill="#4273ED"/>
</svg>
