<svg width="44" height="41" viewBox="0 0 44 41" fill="none" xmlns="http://www.w3.org/2000/svg">
<path d="M41.7999 15.902H38.6648C38.3013 14.6299 37.8015 13.3578 37.1201 12.2219L39.3465 9.99553C39.8463 9.45041 39.8463 8.58714 39.3465 8.042L35.1213 3.81675C34.5762 3.27163 33.7129 3.27163 33.1677 3.81675L30.9414 6.04312C29.8055 5.40706 28.5333 4.90726 27.2156 4.54378V1.36312C27.2156 0.590771 26.6248 0 25.8524 0H19.8097C19.0373 0 18.4465 0.590747 18.4465 1.36312V4.49819C17.1291 4.8617 15.9023 5.36152 14.7207 6.04288L12.54 3.8621C11.9948 3.31698 11.1316 3.31698 10.5864 3.8621L6.36118 8.08736C5.86138 8.58715 5.86138 9.49575 6.36118 10.0409L8.3147 11.9944C8.67822 11.3583 9.26899 10.8585 9.9957 10.4951C10.5408 10.2225 11.1769 10.0406 11.8129 10.0406C12.7215 10.0406 13.6301 10.3588 14.3572 10.9039L17.8557 13.5845C19.2641 12.5396 20.9451 11.9035 22.808 11.9035C27.4424 11.9035 31.2134 15.6746 31.2134 20.3089C31.2134 24.9436 27.4879 28.7151 22.808 28.7151C20.9451 28.7151 19.2188 28.079 17.8557 27.0341L14.3572 29.7147C13.6301 30.2598 12.7215 30.578 11.8129 30.578C11.1769 30.578 10.5408 30.4417 9.9957 30.1692C9.31431 29.851 8.72353 29.3515 8.3147 28.7151L6.40645 30.6233C5.86133 31.1231 5.86133 32.0317 6.40645 32.5769L10.6317 36.8021C11.1768 37.3472 12.0401 37.3472 12.5852 36.8021L14.8116 34.5757C15.9475 35.2118 17.2196 35.7116 18.5374 36.0751V39.2102C18.5374 39.9825 19.1281 40.5733 19.9005 40.5733H25.898C26.6704 40.5733 27.2612 39.9825 27.2612 39.2102V36.0751C28.5786 35.7116 29.8054 35.2117 30.987 34.5304L33.1677 36.7112C33.7129 37.2563 34.5761 37.2563 35.1213 36.7112L39.3465 32.4859C39.8916 31.9861 39.8916 31.0775 39.3465 30.5324L37.1201 28.306C37.7562 27.1701 38.3014 25.898 38.6648 24.5802H41.7999C42.5269 24.5802 43.163 23.9895 43.163 23.2171L43.1627 17.2656C43.1627 16.5385 42.5266 15.9025 41.7996 15.9025L41.7999 15.902Z" fill="white"/>
<path d="M10.5859 26.3976C10.5859 26.8521 10.8584 27.3062 11.2673 27.5335C11.6761 27.7607 12.2216 27.7151 12.5847 27.3972L20.5358 21.3091C20.854 21.0818 21.0356 20.7183 21.0356 20.3095C21.0356 19.9007 20.854 19.5371 20.5358 19.3099L12.585 13.2218C12.3578 13.0402 12.0852 12.9492 11.8127 12.9492C11.6311 12.9492 11.4492 12.9945 11.2676 13.0855C10.8587 13.3127 10.5862 13.7216 10.5862 14.2214V16.9929H1.04491C0.499796 16.9929 0 17.4473 0 18.0378V22.6722C0 23.2173 0.454475 23.7171 1.04491 23.7171H10.5862L10.5859 26.3976Z" fill="white"/>
</svg>
