<svg width="43" height="43" viewBox="0 0 43 43" fill="none" xmlns="http://www.w3.org/2000/svg">
<path d="M42.4624 20.667L41.2597 20.4251C41.1456 20.0555 41.011 19.6994 40.8498 19.3636L41.5823 18.3759C41.7772 18.1139 41.7571 17.7511 41.5285 17.5092L39.3515 15.2248C39.1229 14.9898 38.7604 14.9492 38.4916 15.1308L37.4638 15.8163C37.1279 15.6415 36.7852 15.4871 36.4292 15.3594L36.2411 14.1432C36.1941 13.8206 35.9185 13.5787 35.5894 13.5722L34.2522 13.5453C32.3238 8.16993 27.2715 4.58228 21.5001 4.58228C18.0265 4.58228 14.8687 5.90586 12.4635 8.0559C12.2618 7.96187 12.067 7.86104 11.852 7.78711L11.6707 6.57771C11.6237 6.25509 11.3481 6.0132 11.019 6.00671L7.86114 5.94639C7.56543 5.93309 7.25642 6.16818 7.18929 6.48399L6.94741 7.69339C6.57777 7.80753 6.22174 7.94208 5.88585 8.10324L4.89136 7.37758C4.62936 7.1892 4.27334 7.21611 4.03148 7.43789L1.74714 9.62135C1.51205 9.84314 1.47153 10.206 1.65311 10.4812L2.33175 11.5026C2.27143 11.6167 2.21081 11.7376 2.15699 11.8586C2.04934 12.0872 1.95531 12.3154 1.87489 12.544L0.652185 12.7321C0.329568 12.7791 0.0944816 13.0547 0.0811863 13.377L0.000147974 16.5417C-0.00665699 16.8708 0.221931 17.1532 0.544239 17.2203L1.74691 17.4554C1.85455 17.8114 1.9888 18.161 2.15676 18.5102L1.42429 19.5046C1.22942 19.7666 1.24953 20.1295 1.47811 20.3713L3.66157 22.6557C3.89016 22.8908 4.25268 22.9313 4.52145 22.7497L5.54928 22.0578C5.8852 22.239 6.22792 22.3937 6.59072 22.5214L6.77199 23.7376C6.819 24.0603 7.0946 24.3021 7.42372 24.3086L9.47296 24.3557C9.96354 25.3096 10.5614 26.2168 11.2803 27.043C11.3944 27.1572 11.5021 27.2781 11.6094 27.4059C13.0539 29.079 14.0484 31.1753 14.6933 32.8616C14.4715 32.9692 14.3171 33.1975 14.3171 33.4595V35.6566H14.1096C13.74 35.6566 13.4378 35.9588 13.4378 36.3284C13.4378 36.6981 13.74 37.0003 14.1096 37.0003H14.3045V39.1974C14.3045 39.567 14.6067 39.8692 14.9763 39.8692H17.1598C17.4756 41.6026 19.0008 42.9262 20.8215 42.9262H22.1788C24.0062 42.9262 25.5247 41.6026 25.8405 39.8692H28.0239C28.3936 39.8692 28.6958 39.567 28.6958 39.1974V37.0003H28.8906C29.2603 37.0003 29.5625 36.6981 29.5625 36.3284C29.5625 35.9588 29.2603 35.6566 28.8906 35.6566H28.6958V33.4595C28.6958 33.1907 28.5411 32.9689 28.3128 32.8616C28.6355 32.0218 29.0787 30.9871 29.6633 29.9389L30.1069 29.6432C30.4428 29.8244 30.7924 29.9791 31.1416 30.1L31.3228 31.3162C31.3698 31.6388 31.6454 31.8807 31.9746 31.8872L35.1324 31.9543H35.1457C35.4615 31.9543 35.7436 31.7326 35.8042 31.4167L36.0529 30.1943C36.4157 30.0866 36.7718 29.9456 37.1145 29.7844L37.894 30.3554C37.9073 30.3622 37.9342 30.3823 37.9611 30.3956L38.1021 30.5033C38.3641 30.6982 38.727 30.6712 38.9688 30.4495L41.2532 28.266C41.4882 28.0442 41.5288 27.6814 41.3472 27.4061L40.6685 26.3783C40.8433 26.0492 40.9977 25.6997 41.1254 25.3437L42.3481 25.1556C42.6707 25.1086 42.9058 24.833 42.9191 24.5107L42.9998 21.3528C43.007 21.0163 42.7784 20.7342 42.4626 20.6671L42.4624 20.667ZM8.00876 22.9715L7.8541 21.9099C7.81389 21.6479 7.63232 21.4397 7.37714 21.3658C6.84635 21.2111 6.33569 20.9829 5.86549 20.694C5.6437 20.5597 5.36161 20.5597 5.13982 20.7073L4.2394 21.312L2.83513 19.8474L3.48006 18.9739C3.63471 18.7657 3.65482 18.4833 3.53388 18.255C3.26508 17.7579 3.06371 17.2405 2.94277 16.7233C2.88246 16.4681 2.68078 16.2732 2.41879 16.2194L1.36404 16.0112L1.41786 13.9753L2.49272 13.8073C2.74791 13.7671 2.96289 13.5787 3.03681 13.3303C3.12404 13.0281 3.23849 12.7324 3.37954 12.4234C3.47357 12.2085 3.58121 12.0136 3.69535 11.8323C3.8364 11.6105 3.82959 11.3216 3.68205 11.1067L3.08414 10.2131L4.55556 8.80878L5.42906 9.44721C5.63723 9.60187 5.91963 9.62197 6.14791 9.49423C6.57786 9.25234 7.06163 9.06427 7.63264 8.90312C7.90824 8.85611 8.12322 8.64793 8.18353 8.37233L8.3985 7.31077L10.4344 7.35098L10.5956 8.41255C10.6358 8.67454 10.8242 8.88271 11.0726 8.95664C11.2003 8.99685 11.3213 9.04387 11.4487 9.08439C10.9986 9.58146 10.582 10.1057 10.2059 10.6632C9.88326 10.5893 9.55414 10.5422 9.2182 10.5422C6.67191 10.5422 4.60905 12.6116 4.60905 15.1514C4.60905 17.2477 6.05355 19.0751 8.03564 19.6059C8.16339 20.7683 8.43219 21.9039 8.84856 22.992L8.00876 22.9715ZM7.94813 18.1408V18.1476C6.77239 17.6438 5.95274 16.4813 5.95274 15.1509C5.95274 13.3504 7.41735 11.8855 9.21819 11.8855C9.30542 11.8855 9.39295 11.8988 9.48018 11.9056C8.50581 13.7736 7.9481 15.8899 7.9481 18.1408L7.94813 18.1408ZM12.2616 26.1362C10.3466 23.919 9.29183 21.0838 9.29183 18.1408C9.29183 11.4085 14.7745 5.92647 21.5062 5.92647C26.5252 5.92647 30.9396 8.95009 32.8004 13.532L32.4308 13.5252C32.0949 13.532 31.8261 13.747 31.7589 14.0628L31.5102 15.2722C31.1474 15.3863 30.7914 15.5209 30.4487 15.682L29.461 14.9564C29.199 14.7615 28.8362 14.7884 28.6011 15.0102L26.3168 17.1937C26.0817 17.4154 26.0412 17.7783 26.2228 18.047L26.9014 19.0684C26.8612 19.1423 26.8275 19.2162 26.7873 19.2902C26.3035 18.9004 25.692 18.6653 25.0538 18.6653C24.3012 18.6653 23.6025 18.9542 23.0853 19.4782C22.5678 19.9957 22.2724 20.7078 22.2724 21.4402V22.8714H20.7338V21.4402C20.7338 20.7013 20.4381 19.9889 19.9209 19.4851C19.4102 18.9676 18.6914 18.6653 17.959 18.6653C17.2132 18.6653 16.5145 18.9542 16.0038 19.4782C15.4863 19.9889 15.1841 20.7078 15.1841 21.4402C15.1841 22.972 16.4269 24.2151 17.959 24.2151H19.3902V32.7679H16.0913C15.4194 30.9136 14.3041 28.4613 12.6177 26.5129C12.4967 26.3849 12.369 26.2503 12.2613 26.1362L12.2616 26.1362ZM26.0351 27.9503L28.0711 30.0803C27.6411 30.9336 27.2513 31.8474 26.9086 32.7812H23.6166L23.6163 24.2276H24.5838C24.624 24.5097 24.8257 24.7383 25.1078 24.7986L26.3105 25.0337C26.4181 25.3897 26.5524 25.7457 26.7135 26.0884L25.981 27.0829C25.7865 27.3452 25.8134 27.708 26.0352 27.9499L26.0351 27.9503ZM19.3835 22.8843H17.9523C17.1664 22.8843 16.5212 22.2393 16.5212 21.4531C16.5212 21.0701 16.6758 20.7073 16.9443 20.4386C17.2063 20.1698 17.5623 20.0219 17.9521 20.0219C18.3418 20.0219 18.6979 20.1698 18.9666 20.4451C19.2286 20.707 19.3833 21.0699 19.3833 21.4528L19.3835 22.8843ZM20.7272 32.7809V24.2281H22.2658V32.7809H20.7272ZM25.2087 20.3179C24.886 20.3717 24.651 20.6405 24.6377 20.9628L24.5907 22.8843H23.6098V21.4531C23.6098 21.077 23.7644 20.7073 24.0329 20.4386C24.4697 19.995 25.2155 19.9211 25.7664 20.2236L25.2087 20.3179ZM22.1786 41.576H20.8212C19.7396 41.576 18.8258 40.8503 18.5301 39.8627H24.4628C24.1739 40.8572 23.2601 41.576 22.1785 41.576H22.1786ZM27.3519 38.5191H15.6483V36.9938H27.3519V38.5191ZM15.6483 35.6502V34.1249H27.3519V35.6502H15.6483ZM41.5894 23.9125L40.5146 24.0805C40.2594 24.1207 40.0444 24.3022 39.977 24.5574C39.8158 25.095 39.5941 25.5989 39.312 26.0558C39.1777 26.2776 39.1777 26.5597 39.3253 26.7814L39.9232 27.6819L38.4449 29.0926L37.5783 28.4542C37.3701 28.2995 37.0877 28.2794 36.8594 28.4072C36.3688 28.676 35.8516 28.8773 35.3208 29.0051C35.0656 29.0654 34.8708 29.2671 34.8169 29.5226L34.602 30.5909L32.5728 30.5507L32.4117 29.4892C32.3715 29.2272 32.1831 29.019 31.9347 28.9451C31.4172 28.7972 30.9069 28.569 30.4296 28.2801C30.2078 28.1458 29.9257 28.1458 29.7039 28.2934L28.797 28.8981L27.3995 27.4335L28.0444 26.56C28.1991 26.3518 28.2192 26.0694 28.0983 25.8411C27.8295 25.344 27.6346 24.8266 27.5072 24.3025C27.4468 24.0473 27.2384 23.8525 26.9832 23.7987L25.9284 23.5905L25.9822 21.5614L27.0571 21.3934C27.3123 21.3532 27.5273 21.1716 27.6012 20.9164C27.6952 20.6006 27.8094 20.2984 27.9439 20.0095C28.038 19.8013 28.1456 19.5997 28.2665 19.4116C28.4076 19.1898 28.4008 18.9077 28.2597 18.6859L27.6618 17.7855L29.1332 16.3812L29.9999 17.0197C30.2081 17.1743 30.4905 17.1944 30.7188 17.0667C31.1624 16.818 31.6461 16.6299 32.2035 16.4821L32.2706 16.462C32.5193 16.3949 32.7006 16.1932 32.7544 15.9445L32.9694 14.8829L35.0053 14.9231L35.1665 15.9847C35.2067 16.2399 35.3883 16.4549 35.6434 16.5288C36.1742 16.6834 36.6849 16.9049 37.1486 17.1938C37.3704 17.3281 37.6525 17.3216 37.8743 17.1805L38.7747 16.5758L40.1722 18.0404L39.5272 18.9071C39.3726 19.1153 39.3525 19.4042 39.4802 19.6328C39.7354 20.1029 39.9371 20.6204 40.0781 21.1713C40.1384 21.42 40.3401 21.6149 40.5956 21.6684L41.6504 21.8834L41.5894 23.9125Z" fill="white"/>
<path d="M21.5133 3.62121C21.883 3.62121 22.1852 3.31901 22.1852 2.94937L22.1855 0.671841C22.1855 0.302203 21.8833 0 21.5136 0C21.144 0 20.8418 0.302203 20.8418 0.671841V2.94937C20.8415 3.31901 21.144 3.62121 21.5133 3.62121Z" fill="white"/>
<path d="M13.5911 4.27295C13.7189 4.48112 13.9407 4.59557 14.1621 4.59557C14.2831 4.59557 14.404 4.56185 14.5117 4.49473C14.8275 4.29986 14.9283 3.88321 14.7335 3.56739L13.5376 1.62576C13.3427 1.30995 12.9261 1.20911 12.6103 1.40398C12.2944 1.59885 12.1936 2.01551 12.3885 2.33132L13.5911 4.27295Z" fill="white"/>
<path d="M27.8827 4.49473C27.9903 4.56185 28.1113 4.59557 28.2322 4.59557C28.4608 4.59557 28.6758 4.48143 28.8032 4.27295L29.9991 2.33132C30.194 2.01551 30.0931 1.59886 29.7773 1.40398C29.4615 1.20911 29.0448 1.30995 28.85 1.62576L27.6541 3.56739C27.466 3.88321 27.5669 4.29986 27.8827 4.49473H27.8827Z" fill="white"/>
<path d="M33.7815 18.1204C31.2352 18.1204 29.1724 20.1897 29.1724 22.7295C29.1724 25.2693 31.2417 27.3387 33.7815 27.3387C36.3213 27.3387 38.3972 25.2693 38.3972 22.7295C38.3975 20.1897 36.3213 18.1204 33.7815 18.1204ZM33.7815 26.0015C31.981 26.0015 30.5161 24.5368 30.5161 22.736C30.5161 20.9355 31.9807 19.4706 33.7815 19.4706C35.582 19.4706 37.0535 20.9352 37.0535 22.736C37.0538 24.5365 35.5823 26.0015 33.7815 26.0015Z" fill="white"/>
</svg>
